<svg width="280" height="280" viewBox="0 0 280 280" fill="none" xmlns="http://www.w3.org/2000/svg">
<g clip-path="url(#clip0_105_36)">
<path d="M83.7838 280V271.216L62.1622 248.157V159.216L20 118.588L21.0811 217.412L83.7838 280Z" fill="#56C6B2"/>
<path d="M196.216 280V271.216L217.838 248.157V159.216L260 118.588L258.919 217.412L196.216 280Z" fill="#56C6B2"/>
<path d="M140 220.725L20 101.02V59.2941L70.8108 108.706V94.4314L20 42.8235V0L140 121.882L260 0V42.8235L209.189 94.4314V108.706L260 59.2941V101.02L140 220.725Z" fill="#56C6B2"/>
<path d="M141.081 221.804L140 220.725M141.081 122.98L140 121.882M138.919 221.804L140 220.725M138.919 122.98L140 121.882M140 220.725L20 101.02V59.2941L70.8108 108.706V94.4314L20 42.8235V0L140 121.882M140 220.725L260 101.02V59.2941L209.189 108.706V94.4314L260 42.8235V0L140 121.882M83.7838 271.216V280L21.0811 217.412L20 118.588L62.1622 159.216V248.157L83.7838 271.216ZM196.216 271.216V280L258.919 217.412L260 118.588L217.838 159.216V248.157L196.216 271.216Z" stroke="#279783" stroke-width="4"/>
</g>
<defs>
<clipPath id="clip0_105_36">
<rect width="280" height="280" fill="white"/>
</clipPath>
</defs>
</svg>
