<svg width="864" height="192" viewBox="0 0 864 192" fill="none" xmlns="http://www.w3.org/2000/svg">
<rect width="864" height="192" fill="#E5E9EC"/>
<rect width="96" height="96" fill="#181C21"/>
<path d="M11.35 54L11.944 50.724H10.468V49.176H12.214L12.826 45.684H11.044V44.136H13.096L13.672 40.86H15.31L14.716 44.136H17.236L17.812 40.86H19.45L18.856 44.136H20.332V45.684H18.586L17.974 49.176H19.756V50.724H17.704L17.128 54H15.49L16.084 50.724H13.564L12.988 54H11.35ZM13.834 49.176H16.354L16.966 45.684H14.446L13.834 49.176ZM22.305 54V52.02H25.725V42.858L22.287 45.414V43.038L25.311 40.86H27.975V52.02H30.729V54H22.305ZM36.9859 54.18C36.1219 54.18 35.3719 54.036 34.7359 53.748C34.0999 53.448 33.6079 53.028 33.2599 52.488C32.9119 51.948 32.7379 51.318 32.7379 50.598C32.7379 49.806 32.9599 49.128 33.4039 48.564C33.8479 48 34.5079 47.52 35.3839 47.124L37.3999 46.206C37.8319 46.002 38.1679 45.726 38.4079 45.378C38.6599 45.03 38.7859 44.64 38.7859 44.208C38.7859 43.716 38.6239 43.326 38.2999 43.038C37.9759 42.738 37.5379 42.588 36.9859 42.588C36.4339 42.588 35.9899 42.738 35.6539 43.038C35.3299 43.338 35.1679 43.734 35.1679 44.226C35.1679 44.646 35.2939 45.03 35.5459 45.378C35.7979 45.726 36.1339 45.996 36.5539 46.188L38.5519 47.106C39.4999 47.526 40.1839 48.024 40.6039 48.6C41.0239 49.164 41.2339 49.83 41.2339 50.598C41.2339 51.702 40.8499 52.578 40.0819 53.226C39.3259 53.862 38.2939 54.18 36.9859 54.18ZM36.9859 52.254C37.6099 52.254 38.1019 52.092 38.4619 51.768C38.8339 51.432 39.0199 50.994 39.0199 50.454C39.0199 50.034 38.8939 49.638 38.6419 49.266C38.3899 48.882 38.0419 48.588 37.5979 48.384L35.4559 47.394C34.6399 47.01 34.0159 46.554 33.5839 46.026C33.1639 45.486 32.9539 44.844 32.9539 44.1C32.9539 43.428 33.1159 42.834 33.4399 42.318C33.7639 41.802 34.2259 41.4 34.8259 41.112C35.4379 40.824 36.1579 40.68 36.9859 40.68C37.8139 40.68 38.5219 40.824 39.1099 41.112C39.7099 41.4 40.1719 41.802 40.4959 42.318C40.8319 42.834 40.9999 43.428 40.9999 44.1C40.9999 44.856 40.7899 45.498 40.3699 46.026C39.9499 46.554 39.3319 47.01 38.5159 47.394L36.3559 48.402C35.9239 48.594 35.5819 48.876 35.3299 49.248C35.0779 49.62 34.9519 50.016 34.9519 50.436C34.9519 50.976 35.1319 51.414 35.4919 51.75C35.8639 52.086 36.3619 52.254 36.9859 52.254ZM43.8909 54V52.02H47.3109V42.858L43.8729 45.414V43.038L46.8969 40.86H49.5609V52.02H52.3149V54H43.8909ZM58.6439 54.18C57.8039 54.18 57.0659 54.024 56.4299 53.712C55.8059 53.388 55.3199 52.938 54.9719 52.362C54.6359 51.774 54.4679 51.084 54.4679 50.292V44.568C54.4679 43.764 54.6359 43.074 54.9719 42.498C55.3199 41.922 55.8059 41.478 56.4299 41.166C57.0659 40.842 57.8039 40.68 58.6439 40.68C59.4959 40.68 60.2279 40.842 60.8399 41.166C61.4639 41.478 61.9499 41.922 62.2979 42.498C62.6459 43.074 62.8199 43.764 62.8199 44.568H60.5519C60.5519 43.944 60.3839 43.47 60.0479 43.146C59.7239 42.822 59.2559 42.66 58.6439 42.66C58.0319 42.66 57.5579 42.822 57.2219 43.146C56.8859 43.47 56.7179 43.938 56.7179 44.55V50.292C56.7179 50.904 56.8859 51.378 57.2219 51.714C57.5579 52.038 58.0319 52.2 58.6439 52.2C59.2559 52.2 59.7239 52.038 60.0479 51.714C60.3839 51.378 60.5519 50.904 60.5519 50.292H62.8199C62.8199 51.072 62.6459 51.756 62.2979 52.344C61.9499 52.932 61.4639 53.388 60.8399 53.712C60.2279 54.024 59.4959 54.18 58.6439 54.18ZM65.3868 54V51.822L69.4908 47.7C70.0668 47.112 70.4928 46.584 70.7688 46.116C71.0448 45.636 71.1828 45.144 71.1828 44.64C71.1828 44.028 71.0148 43.554 70.6788 43.218C70.3428 42.87 69.8868 42.696 69.3108 42.696C68.6748 42.696 68.1768 42.882 67.8168 43.254C67.4568 43.614 67.2768 44.118 67.2768 44.766H65.0268C65.0388 43.926 65.2188 43.206 65.5668 42.606C65.9268 41.994 66.4308 41.52 67.0788 41.184C67.7268 40.848 68.4828 40.68 69.3468 40.68C70.1748 40.68 70.8948 40.836 71.5068 41.148C72.1188 41.46 72.5928 41.898 72.9288 42.462C73.2648 43.026 73.4328 43.698 73.4328 44.478C73.4328 45.282 73.2228 46.068 72.8028 46.836C72.3948 47.592 71.7348 48.408 70.8228 49.284L68.0868 51.966H73.5948V54H65.3868ZM76.2698 54V52.02H79.6898V42.858L76.2518 45.414V43.038L79.2758 40.86H81.9398V52.02H84.6938V54H76.2698Z" fill="#E5E9EC"/>
<rect x="96" width="96" height="96" fill="#1F242A"/>
<path d="M107.35 54L107.944 50.724H106.468V49.176H108.214L108.826 45.684H107.044V44.136H109.096L109.672 40.86H111.31L110.716 44.136H113.236L113.812 40.86H115.45L114.856 44.136H116.332V45.684H114.586L113.974 49.176H115.756V50.724H113.704L113.128 54H111.49L112.084 50.724H109.564L108.988 54H107.35ZM109.834 49.176H112.354L112.966 45.684H110.446L109.834 49.176ZM118.305 54V52.02H121.725V42.858L118.287 45.414V43.038L121.311 40.86H123.975V52.02H126.729V54H118.305ZM129.026 54V40.86H137.198V42.948H131.24V46.458H136.73V48.546H131.276V54H129.026ZM139.801 54V51.822L143.905 47.7C144.481 47.112 144.907 46.584 145.183 46.116C145.459 45.636 145.597 45.144 145.597 44.64C145.597 44.028 145.429 43.554 145.093 43.218C144.757 42.87 144.301 42.696 143.725 42.696C143.089 42.696 142.591 42.882 142.231 43.254C141.871 43.614 141.691 44.118 141.691 44.766H139.441C139.453 43.926 139.633 43.206 139.981 42.606C140.341 41.994 140.845 41.52 141.493 41.184C142.141 40.848 142.897 40.68 143.761 40.68C144.589 40.68 145.309 40.836 145.921 41.148C146.533 41.46 147.007 41.898 147.343 42.462C147.679 43.026 147.847 43.698 147.847 44.478C147.847 45.282 147.637 46.068 147.217 46.836C146.809 47.592 146.149 48.408 145.237 49.284L142.501 51.966H148.009V54H139.801ZM156.192 54V51.39H150.342V48.132L155.4 40.86H157.92L152.502 48.726V49.41H156.192V46.44H158.442V54H156.192ZM161.387 54V51.822L165.491 47.7C166.067 47.112 166.493 46.584 166.769 46.116C167.045 45.636 167.183 45.144 167.183 44.64C167.183 44.028 167.015 43.554 166.679 43.218C166.343 42.87 165.887 42.696 165.311 42.696C164.675 42.696 164.177 42.882 163.817 43.254C163.457 43.614 163.277 44.118 163.277 44.766H161.027C161.039 43.926 161.219 43.206 161.567 42.606C161.927 41.994 162.431 41.52 163.079 41.184C163.727 40.848 164.483 40.68 165.347 40.68C166.175 40.68 166.895 40.836 167.507 41.148C168.119 41.46 168.593 41.898 168.929 42.462C169.265 43.026 169.433 43.698 169.433 44.478C169.433 45.282 169.223 46.068 168.803 46.836C168.395 47.592 167.735 48.408 166.823 49.284L164.087 51.966H169.595V54H161.387ZM171.388 54L174.7 40.86H177.598L180.928 54H178.624L177.904 50.814H174.412L173.692 54H171.388ZM174.826 48.978H177.49L176.698 45.45C176.566 44.862 176.452 44.334 176.356 43.866C176.26 43.386 176.194 43.038 176.158 42.822C176.122 43.038 176.056 43.386 175.96 43.866C175.876 44.334 175.762 44.856 175.618 45.432L174.826 48.978Z" fill="#E5E9EC"/>
<rect x="192" width="96" height="96" fill="#2D353E"/>
<path d="M203.35 54L203.944 50.724H202.468V49.176H204.214L204.826 45.684H203.044V44.136H205.096L205.672 40.86H207.31L206.716 44.136H209.236L209.812 40.86H211.45L210.856 44.136H212.332V45.684H210.586L209.974 49.176H211.756V50.724H209.704L209.128 54H207.49L208.084 50.724H205.564L204.988 54H203.35ZM205.834 49.176H208.354L208.966 45.684H206.446L205.834 49.176ZM214.215 54V51.822L218.319 47.7C218.895 47.112 219.321 46.584 219.597 46.116C219.873 45.636 220.011 45.144 220.011 44.64C220.011 44.028 219.843 43.554 219.507 43.218C219.171 42.87 218.715 42.696 218.139 42.696C217.503 42.696 217.005 42.882 216.645 43.254C216.285 43.614 216.105 44.118 216.105 44.766H213.855C213.867 43.926 214.047 43.206 214.395 42.606C214.755 41.994 215.259 41.52 215.907 41.184C216.555 40.848 217.311 40.68 218.175 40.68C219.003 40.68 219.723 40.836 220.335 41.148C220.947 41.46 221.421 41.898 221.757 42.462C222.093 43.026 222.261 43.698 222.261 44.478C222.261 45.282 222.051 46.068 221.631 46.836C221.223 47.592 220.563 48.408 219.651 49.284L216.915 51.966H222.423V54H214.215ZM224.936 54V40.86H228.842C229.73 40.86 230.498 41.028 231.146 41.364C231.806 41.7 232.316 42.174 232.676 42.786C233.036 43.398 233.216 44.124 233.216 44.964V49.878C233.216 50.706 233.036 51.432 232.676 52.056C232.316 52.668 231.806 53.148 231.146 53.496C230.498 53.832 229.73 54 228.842 54H224.936ZM227.186 51.93H228.842C229.49 51.93 230.006 51.75 230.39 51.39C230.774 51.018 230.966 50.514 230.966 49.878V44.964C230.966 44.34 230.774 43.848 230.39 43.488C230.006 43.116 229.49 42.93 228.842 42.93H227.186V51.93ZM239.653 54.18C238.801 54.18 238.057 54.024 237.421 53.712C236.797 53.4 236.311 52.962 235.963 52.398C235.615 51.834 235.441 51.168 235.441 50.4H237.709C237.709 50.988 237.877 51.45 238.213 51.786C238.561 52.11 239.047 52.272 239.671 52.272C240.295 52.272 240.775 52.104 241.111 51.768C241.447 51.432 241.615 50.976 241.615 50.4V49.374C241.615 48.786 241.447 48.33 241.111 48.006C240.775 47.67 240.295 47.502 239.671 47.502H238.195V45.468L241.093 42.786H236.035V40.86H243.379V42.894L239.671 46.296V45.576C240.967 45.576 241.993 45.918 242.749 46.602C243.505 47.286 243.883 48.21 243.883 49.374V50.4C243.883 51.168 243.709 51.834 243.361 52.398C243.013 52.962 242.521 53.4 241.885 53.712C241.249 54.024 240.505 54.18 239.653 54.18ZM250.554 54.18C249.342 54.18 248.37 53.88 247.638 53.28C246.906 52.668 246.504 51.84 246.432 50.796H248.682C248.73 51.252 248.91 51.606 249.222 51.858C249.546 52.098 249.99 52.218 250.554 52.218C251.178 52.218 251.652 52.056 251.976 51.732C252.3 51.396 252.462 50.934 252.462 50.346V49.068C252.462 48.468 252.3 48.012 251.976 47.7C251.652 47.376 251.178 47.214 250.554 47.214C250.17 47.214 249.84 47.292 249.564 47.448C249.288 47.604 249.078 47.82 248.934 48.096H246.738L246.828 40.86H254.226V42.894H248.952L248.916 46.71H249.438L248.898 47.16C248.898 46.608 249.114 46.176 249.546 45.864C249.99 45.54 250.584 45.378 251.328 45.378C252.396 45.366 253.224 45.69 253.812 46.35C254.412 46.998 254.712 47.904 254.712 49.068V50.346C254.712 51.534 254.34 52.47 253.596 53.154C252.864 53.838 251.85 54.18 250.554 54.18ZM261.239 54.18C260.387 54.18 259.643 54.024 259.007 53.712C258.383 53.4 257.897 52.962 257.549 52.398C257.201 51.834 257.027 51.168 257.027 50.4H259.295C259.295 50.988 259.463 51.45 259.799 51.786C260.147 52.11 260.633 52.272 261.257 52.272C261.881 52.272 262.361 52.104 262.697 51.768C263.033 51.432 263.201 50.976 263.201 50.4V49.374C263.201 48.786 263.033 48.33 262.697 48.006C262.361 47.67 261.881 47.502 261.257 47.502H259.781V45.468L262.679 42.786H257.621V40.86H264.965V42.894L261.257 46.296V45.576C262.553 45.576 263.579 45.918 264.335 46.602C265.091 47.286 265.469 48.21 265.469 49.374V50.4C265.469 51.168 265.295 51.834 264.947 52.398C264.599 52.962 264.107 53.4 263.471 53.712C262.835 54.024 262.091 54.18 261.239 54.18ZM268.342 54V40.86H276.226V42.822H270.556V46.242H275.596V48.186H270.556V52.038H276.226V54H268.342Z" fill="#E5E9EC"/>
<rect x="288" width="96" height="96" fill="#3C4652"/>
<path d="M299.35 54L299.944 50.724H298.468V49.176H300.214L300.826 45.684H299.044V44.136H301.096L301.672 40.86H303.31L302.716 44.136H305.236L305.812 40.86H307.45L306.856 44.136H308.332V45.684H306.586L305.974 49.176H307.756V50.724H305.704L305.128 54H303.49L304.084 50.724H301.564L300.988 54H299.35ZM301.834 49.176H304.354L304.966 45.684H302.446L301.834 49.176ZM314.067 54.18C313.215 54.18 312.471 54.024 311.835 53.712C311.211 53.4 310.725 52.962 310.377 52.398C310.029 51.834 309.855 51.168 309.855 50.4H312.123C312.123 50.988 312.291 51.45 312.627 51.786C312.975 52.11 313.461 52.272 314.085 52.272C314.709 52.272 315.189 52.104 315.525 51.768C315.861 51.432 316.029 50.976 316.029 50.4V49.374C316.029 48.786 315.861 48.33 315.525 48.006C315.189 47.67 314.709 47.502 314.085 47.502H312.609V45.468L315.507 42.786H310.449V40.86H317.793V42.894L314.085 46.296V45.576C315.381 45.576 316.407 45.918 317.163 46.602C317.919 47.286 318.297 48.21 318.297 49.374V50.4C318.297 51.168 318.123 51.834 317.775 52.398C317.427 52.962 316.935 53.4 316.299 53.712C315.663 54.024 314.919 54.18 314.067 54.18ZM325.058 54.18C324.218 54.18 323.48 54.024 322.844 53.712C322.22 53.388 321.734 52.938 321.386 52.362C321.05 51.774 320.882 51.084 320.882 50.292V44.568C320.882 43.764 321.05 43.074 321.386 42.498C321.734 41.922 322.22 41.478 322.844 41.166C323.48 40.842 324.218 40.68 325.058 40.68C325.91 40.68 326.642 40.842 327.254 41.166C327.878 41.478 328.364 41.922 328.712 42.498C329.06 43.074 329.234 43.764 329.234 44.568H326.966C326.966 43.944 326.798 43.47 326.462 43.146C326.138 42.822 325.67 42.66 325.058 42.66C324.446 42.66 323.972 42.822 323.636 43.146C323.3 43.47 323.132 43.938 323.132 44.55V50.292C323.132 50.904 323.3 51.378 323.636 51.714C323.972 52.038 324.446 52.2 325.058 52.2C325.67 52.2 326.138 52.038 326.462 51.714C326.798 51.378 326.966 50.904 326.966 50.292H329.234C329.234 51.072 329.06 51.756 328.712 52.344C328.364 52.932 327.878 53.388 327.254 53.712C326.642 54.024 325.91 54.18 325.058 54.18ZM337.399 54V51.39H331.549V48.132L336.607 40.86H339.127L333.709 48.726V49.41H337.399V46.44H339.649V54H337.399ZM346.572 54.18C345.696 54.18 344.922 54 344.25 53.64C343.59 53.268 343.074 52.752 342.702 52.092C342.342 51.42 342.162 50.646 342.162 49.77C342.162 49.146 342.264 48.492 342.468 47.808C342.684 47.124 342.978 46.482 343.35 45.882L346.446 40.86H348.948L345.06 46.98L345.168 47.052C345.408 46.68 345.732 46.398 346.14 46.206C346.548 46.014 347.004 45.918 347.508 45.918C348.216 45.918 348.828 46.086 349.344 46.422C349.86 46.758 350.262 47.226 350.55 47.826C350.838 48.426 350.982 49.128 350.982 49.932C350.982 50.784 350.796 51.528 350.424 52.164C350.064 52.8 349.554 53.298 348.894 53.658C348.246 54.006 347.472 54.18 346.572 54.18ZM346.572 52.272C347.232 52.272 347.766 52.062 348.174 51.642C348.582 51.21 348.786 50.652 348.786 49.968C348.786 49.26 348.582 48.696 348.174 48.276C347.766 47.844 347.232 47.628 346.572 47.628C345.912 47.628 345.378 47.844 344.97 48.276C344.562 48.696 344.358 49.26 344.358 49.968C344.358 50.652 344.562 51.21 344.97 51.642C345.378 52.062 345.912 52.272 346.572 52.272ZM357.347 54.18C356.135 54.18 355.163 53.88 354.431 53.28C353.699 52.668 353.297 51.84 353.225 50.796H355.475C355.523 51.252 355.703 51.606 356.015 51.858C356.339 52.098 356.783 52.218 357.347 52.218C357.971 52.218 358.445 52.056 358.769 51.732C359.093 51.396 359.255 50.934 359.255 50.346V49.068C359.255 48.468 359.093 48.012 358.769 47.7C358.445 47.376 357.971 47.214 357.347 47.214C356.963 47.214 356.633 47.292 356.357 47.448C356.081 47.604 355.871 47.82 355.727 48.096H353.531L353.621 40.86H361.019V42.894H355.745L355.709 46.71H356.231L355.691 47.16C355.691 46.608 355.907 46.176 356.339 45.864C356.783 45.54 357.377 45.378 358.121 45.378C359.189 45.366 360.017 45.69 360.605 46.35C361.205 46.998 361.505 47.904 361.505 49.068V50.346C361.505 51.534 361.133 52.47 360.389 53.154C359.657 53.838 358.643 54.18 357.347 54.18ZM364.18 54V51.822L368.284 47.7C368.86 47.112 369.286 46.584 369.562 46.116C369.838 45.636 369.976 45.144 369.976 44.64C369.976 44.028 369.808 43.554 369.472 43.218C369.136 42.87 368.68 42.696 368.104 42.696C367.468 42.696 366.97 42.882 366.61 43.254C366.25 43.614 366.07 44.118 366.07 44.766H363.82C363.832 43.926 364.012 43.206 364.36 42.606C364.72 41.994 365.224 41.52 365.872 41.184C366.52 40.848 367.276 40.68 368.14 40.68C368.968 40.68 369.688 40.836 370.3 41.148C370.912 41.46 371.386 41.898 371.722 42.462C372.058 43.026 372.226 43.698 372.226 44.478C372.226 45.282 372.016 46.068 371.596 46.836C371.188 47.592 370.528 48.408 369.616 49.284L366.88 51.966H372.388V54H364.18Z" fill="#E5E9EC"/>
<rect x="384" width="96" height="96" fill="#4B5766"/>
<path d="M395.35 54L395.944 50.724H394.468V49.176H396.214L396.826 45.684H395.044V44.136H397.096L397.672 40.86H399.31L398.716 44.136H401.236L401.812 40.86H403.45L402.856 44.136H404.332V45.684H402.586L401.974 49.176H403.756V50.724H401.704L401.128 54H399.49L400.084 50.724H397.564L396.988 54H395.35ZM397.834 49.176H400.354L400.966 45.684H398.446L397.834 49.176ZM411.813 54V51.39H405.963V48.132L411.021 40.86H413.541L408.123 48.726V49.41H411.813V46.44H414.063V54H411.813ZM416.972 54V40.86H421.004C422.276 40.86 423.284 41.166 424.028 41.778C424.772 42.378 425.144 43.2 425.144 44.244C425.144 44.832 425.012 45.342 424.748 45.774C424.484 46.206 424.124 46.542 423.668 46.782C423.224 47.022 422.708 47.142 422.12 47.142V47.07C422.756 47.058 423.32 47.178 423.812 47.43C424.316 47.67 424.712 48.03 425 48.51C425.3 48.99 425.45 49.572 425.45 50.256C425.45 51.012 425.276 51.672 424.928 52.236C424.58 52.8 424.088 53.238 423.452 53.55C422.828 53.85 422.078 54 421.202 54H416.972ZM419.168 52.128H421.058C421.718 52.128 422.234 51.954 422.606 51.606C422.99 51.246 423.182 50.76 423.182 50.148C423.182 49.536 422.99 49.044 422.606 48.672C422.234 48.288 421.718 48.096 421.058 48.096H419.168V52.128ZM419.168 46.278H420.968C421.568 46.278 422.036 46.122 422.372 45.81C422.72 45.486 422.894 45.048 422.894 44.496C422.894 43.944 422.72 43.512 422.372 43.2C422.036 42.888 421.568 42.732 420.968 42.732H419.168V46.278ZM431.761 54.18C430.549 54.18 429.577 53.88 428.845 53.28C428.113 52.668 427.711 51.84 427.639 50.796H429.889C429.937 51.252 430.117 51.606 430.429 51.858C430.753 52.098 431.197 52.218 431.761 52.218C432.385 52.218 432.859 52.056 433.183 51.732C433.507 51.396 433.669 50.934 433.669 50.346V49.068C433.669 48.468 433.507 48.012 433.183 47.7C432.859 47.376 432.385 47.214 431.761 47.214C431.377 47.214 431.047 47.292 430.771 47.448C430.495 47.604 430.285 47.82 430.141 48.096H427.945L428.035 40.86H435.433V42.894H430.159L430.123 46.71H430.645L430.105 47.16C430.105 46.608 430.321 46.176 430.753 45.864C431.197 45.54 431.791 45.378 432.535 45.378C433.603 45.366 434.431 45.69 435.019 46.35C435.619 46.998 435.919 47.904 435.919 49.068V50.346C435.919 51.534 435.547 52.47 434.803 53.154C434.071 53.838 433.057 54.18 431.761 54.18ZM439.962 54L444.714 42.948H440.502V44.856H438.252V40.86H446.964V42.984L442.374 54H439.962ZM453.365 54.18C452.489 54.18 451.715 54 451.043 53.64C450.383 53.268 449.867 52.752 449.495 52.092C449.135 51.42 448.955 50.646 448.955 49.77C448.955 49.146 449.057 48.492 449.261 47.808C449.477 47.124 449.771 46.482 450.143 45.882L453.239 40.86H455.741L451.853 46.98L451.961 47.052C452.201 46.68 452.525 46.398 452.933 46.206C453.341 46.014 453.797 45.918 454.301 45.918C455.009 45.918 455.621 46.086 456.137 46.422C456.653 46.758 457.055 47.226 457.343 47.826C457.631 48.426 457.775 49.128 457.775 49.932C457.775 50.784 457.589 51.528 457.217 52.164C456.857 52.8 456.347 53.298 455.687 53.658C455.039 54.006 454.265 54.18 453.365 54.18ZM453.365 52.272C454.025 52.272 454.559 52.062 454.967 51.642C455.375 51.21 455.579 50.652 455.579 49.968C455.579 49.26 455.375 48.696 454.967 48.276C454.559 47.844 454.025 47.628 453.365 47.628C452.705 47.628 452.171 47.844 451.763 48.276C451.355 48.696 451.151 49.26 451.151 49.968C451.151 50.652 451.355 51.21 451.763 51.642C452.171 52.062 452.705 52.272 453.365 52.272ZM464.158 54.18C463.282 54.18 462.508 54 461.836 53.64C461.176 53.268 460.66 52.752 460.288 52.092C459.928 51.42 459.748 50.646 459.748 49.77C459.748 49.146 459.85 48.492 460.054 47.808C460.27 47.124 460.564 46.482 460.936 45.882L464.032 40.86H466.534L462.646 46.98L462.754 47.052C462.994 46.68 463.318 46.398 463.726 46.206C464.134 46.014 464.59 45.918 465.094 45.918C465.802 45.918 466.414 46.086 466.93 46.422C467.446 46.758 467.848 47.226 468.136 47.826C468.424 48.426 468.568 49.128 468.568 49.932C468.568 50.784 468.382 51.528 468.01 52.164C467.65 52.8 467.14 53.298 466.48 53.658C465.832 54.006 465.058 54.18 464.158 54.18ZM464.158 52.272C464.818 52.272 465.352 52.062 465.76 51.642C466.168 51.21 466.372 50.652 466.372 49.968C466.372 49.26 466.168 48.696 465.76 48.276C465.352 47.844 464.818 47.628 464.158 47.628C463.498 47.628 462.964 47.844 462.556 48.276C462.148 48.696 461.944 49.26 461.944 49.968C461.944 50.652 462.148 51.21 462.556 51.642C462.964 52.062 463.498 52.272 464.158 52.272Z" fill="#E5E9EC"/>
<rect x="480" width="96" height="96" fill="#A7B3BF"/>
<path d="M491.35 54L491.944 50.724H490.468V49.176H492.214L492.826 45.684H491.044V44.136H493.096L493.672 40.86H495.31L494.716 44.136H497.236L497.812 40.86H499.45L498.856 44.136H500.332V45.684H498.586L497.974 49.176H499.756V50.724H497.704L497.128 54H495.49L496.084 50.724H493.564L492.988 54H491.35ZM493.834 49.176H496.354L496.966 45.684H494.446L493.834 49.176ZM501.423 54L504.735 40.86H507.633L510.963 54H508.659L507.939 50.814H504.447L503.727 54H501.423ZM504.861 48.978H507.525L506.733 45.45C506.601 44.862 506.487 44.334 506.391 43.866C506.295 43.386 506.229 43.038 506.193 42.822C506.157 43.038 506.091 43.386 505.995 43.866C505.911 44.334 505.797 44.856 505.653 45.432L504.861 48.978ZM514.376 54L519.128 42.948H514.916V44.856H512.666V40.86H521.378V42.984L516.788 54H514.376ZM523.765 54V40.86H527.797C529.069 40.86 530.077 41.166 530.821 41.778C531.565 42.378 531.937 43.2 531.937 44.244C531.937 44.832 531.805 45.342 531.541 45.774C531.277 46.206 530.917 46.542 530.461 46.782C530.017 47.022 529.501 47.142 528.913 47.142V47.07C529.549 47.058 530.113 47.178 530.605 47.43C531.109 47.67 531.505 48.03 531.793 48.51C532.093 48.99 532.243 49.572 532.243 50.256C532.243 51.012 532.069 51.672 531.721 52.236C531.373 52.8 530.881 53.238 530.245 53.55C529.621 53.85 528.871 54 527.995 54H523.765ZM525.961 52.128H527.851C528.511 52.128 529.027 51.954 529.399 51.606C529.783 51.246 529.975 50.76 529.975 50.148C529.975 49.536 529.783 49.044 529.399 48.672C529.027 48.288 528.511 48.096 527.851 48.096H525.961V52.128ZM525.961 46.278H527.761C528.361 46.278 528.829 46.122 529.165 45.81C529.513 45.486 529.687 45.048 529.687 44.496C529.687 43.944 529.513 43.512 529.165 43.2C528.829 42.888 528.361 42.732 527.761 42.732H525.961V46.278ZM538.446 54.18C537.594 54.18 536.85 54.024 536.214 53.712C535.59 53.4 535.104 52.962 534.756 52.398C534.408 51.834 534.234 51.168 534.234 50.4H536.502C536.502 50.988 536.67 51.45 537.006 51.786C537.354 52.11 537.84 52.272 538.464 52.272C539.088 52.272 539.568 52.104 539.904 51.768C540.24 51.432 540.408 50.976 540.408 50.4V49.374C540.408 48.786 540.24 48.33 539.904 48.006C539.568 47.67 539.088 47.502 538.464 47.502H536.988V45.468L539.886 42.786H534.828V40.86H542.172V42.894L538.464 46.296V45.576C539.76 45.576 540.786 45.918 541.542 46.602C542.298 47.286 542.676 48.21 542.676 49.374V50.4C542.676 51.168 542.502 51.834 542.154 52.398C541.806 52.962 541.314 53.4 540.678 53.712C540.042 54.024 539.298 54.18 538.446 54.18ZM545.351 54V40.86H549.383C550.655 40.86 551.663 41.166 552.407 41.778C553.151 42.378 553.523 43.2 553.523 44.244C553.523 44.832 553.391 45.342 553.127 45.774C552.863 46.206 552.503 46.542 552.047 46.782C551.603 47.022 551.087 47.142 550.499 47.142V47.07C551.135 47.058 551.699 47.178 552.191 47.43C552.695 47.67 553.091 48.03 553.379 48.51C553.679 48.99 553.829 49.572 553.829 50.256C553.829 51.012 553.655 51.672 553.307 52.236C552.959 52.8 552.467 53.238 551.831 53.55C551.207 53.85 550.457 54 549.581 54H545.351ZM547.547 52.128H549.437C550.097 52.128 550.613 51.954 550.985 51.606C551.369 51.246 551.561 50.76 551.561 50.148C551.561 49.536 551.369 49.044 550.985 48.672C550.613 48.288 550.097 48.096 549.437 48.096H547.547V52.128ZM547.547 46.278H549.347C549.947 46.278 550.415 46.122 550.751 45.81C551.099 45.486 551.273 45.048 551.273 44.496C551.273 43.944 551.099 43.512 550.751 43.2C550.415 42.888 549.947 42.732 549.347 42.732H547.547V46.278ZM556.198 54V40.86H564.37V42.948H558.412V46.458H563.902V48.546H558.448V54H556.198Z" fill="#1F242A"/>
<rect x="576" width="96" height="96" fill="#B3BDC8"/>
<path d="M587.35 54L587.944 50.724H586.468V49.176H588.214L588.826 45.684H587.044V44.136H589.096L589.672 40.86H591.31L590.716 44.136H593.236L593.812 40.86H595.45L594.856 44.136H596.332V45.684H594.586L593.974 49.176H595.756V50.724H593.704L593.128 54H591.49L592.084 50.724H589.564L588.988 54H587.35ZM589.834 49.176H592.354L592.966 45.684H590.446L589.834 49.176ZM598.179 54V40.86H602.211C603.483 40.86 604.491 41.166 605.235 41.778C605.979 42.378 606.351 43.2 606.351 44.244C606.351 44.832 606.219 45.342 605.955 45.774C605.691 46.206 605.331 46.542 604.875 46.782C604.431 47.022 603.915 47.142 603.327 47.142V47.07C603.963 47.058 604.527 47.178 605.019 47.43C605.523 47.67 605.919 48.03 606.207 48.51C606.507 48.99 606.657 49.572 606.657 50.256C606.657 51.012 606.483 51.672 606.135 52.236C605.787 52.8 605.295 53.238 604.659 53.55C604.035 53.85 603.285 54 602.409 54H598.179ZM600.375 52.128H602.265C602.925 52.128 603.441 51.954 603.813 51.606C604.197 51.246 604.389 50.76 604.389 50.148C604.389 49.536 604.197 49.044 603.813 48.672C603.441 48.288 602.925 48.096 602.265 48.096H600.375V52.128ZM600.375 46.278H602.175C602.775 46.278 603.243 46.122 603.579 45.81C603.927 45.486 604.101 45.048 604.101 44.496C604.101 43.944 603.927 43.512 603.579 43.2C603.243 42.888 602.775 42.732 602.175 42.732H600.375V46.278ZM612.86 54.18C612.008 54.18 611.264 54.024 610.628 53.712C610.004 53.4 609.518 52.962 609.17 52.398C608.822 51.834 608.648 51.168 608.648 50.4H610.916C610.916 50.988 611.084 51.45 611.42 51.786C611.768 52.11 612.254 52.272 612.878 52.272C613.502 52.272 613.982 52.104 614.318 51.768C614.654 51.432 614.822 50.976 614.822 50.4V49.374C614.822 48.786 614.654 48.33 614.318 48.006C613.982 47.67 613.502 47.502 612.878 47.502H611.402V45.468L614.3 42.786H609.242V40.86H616.586V42.894L612.878 46.296V45.576C614.174 45.576 615.2 45.918 615.956 46.602C616.712 47.286 617.09 48.21 617.09 49.374V50.4C617.09 51.168 616.916 51.834 616.568 52.398C616.22 52.962 615.728 53.4 615.092 53.712C614.456 54.024 613.712 54.18 612.86 54.18ZM619.765 54V40.86H623.797C625.069 40.86 626.077 41.166 626.821 41.778C627.565 42.378 627.937 43.2 627.937 44.244C627.937 44.832 627.805 45.342 627.541 45.774C627.277 46.206 626.917 46.542 626.461 46.782C626.017 47.022 625.501 47.142 624.913 47.142V47.07C625.549 47.058 626.113 47.178 626.605 47.43C627.109 47.67 627.505 48.03 627.793 48.51C628.093 48.99 628.243 49.572 628.243 50.256C628.243 51.012 628.069 51.672 627.721 52.236C627.373 52.8 626.881 53.238 626.245 53.55C625.621 53.85 624.871 54 623.995 54H619.765ZM621.961 52.128H623.851C624.511 52.128 625.027 51.954 625.399 51.606C625.783 51.246 625.975 50.76 625.975 50.148C625.975 49.536 625.783 49.044 625.399 48.672C625.027 48.288 624.511 48.096 623.851 48.096H621.961V52.128ZM621.961 46.278H623.761C624.361 46.278 624.829 46.122 625.165 45.81C625.513 45.486 625.687 45.048 625.687 44.496C625.687 43.944 625.513 43.512 625.165 43.2C624.829 42.888 624.361 42.732 623.761 42.732H621.961V46.278ZM630.522 54V40.86H634.428C635.316 40.86 636.084 41.028 636.732 41.364C637.392 41.7 637.902 42.174 638.262 42.786C638.622 43.398 638.802 44.124 638.802 44.964V49.878C638.802 50.706 638.622 51.432 638.262 52.056C637.902 52.668 637.392 53.148 636.732 53.496C636.084 53.832 635.316 54 634.428 54H630.522ZM632.772 51.93H634.428C635.076 51.93 635.592 51.75 635.976 51.39C636.36 51.018 636.552 50.514 636.552 49.878V44.964C636.552 44.34 636.36 43.848 635.976 43.488C635.592 43.116 635.076 42.93 634.428 42.93H632.772V51.93ZM645.437 54.18C644.597 54.18 643.859 54.024 643.223 53.712C642.599 53.388 642.113 52.938 641.765 52.362C641.429 51.774 641.261 51.084 641.261 50.292V44.568C641.261 43.764 641.429 43.074 641.765 42.498C642.113 41.922 642.599 41.478 643.223 41.166C643.859 40.842 644.597 40.68 645.437 40.68C646.289 40.68 647.021 40.842 647.633 41.166C648.257 41.478 648.743 41.922 649.091 42.498C649.439 43.074 649.613 43.764 649.613 44.568H647.345C647.345 43.944 647.177 43.47 646.841 43.146C646.517 42.822 646.049 42.66 645.437 42.66C644.825 42.66 644.351 42.822 644.015 43.146C643.679 43.47 643.511 43.938 643.511 44.55V50.292C643.511 50.904 643.679 51.378 644.015 51.714C644.351 52.038 644.825 52.2 645.437 52.2C646.049 52.2 646.517 52.038 646.841 51.714C647.177 51.378 647.345 50.904 647.345 50.292H649.613C649.613 51.072 649.439 51.756 649.091 52.344C648.743 52.932 648.257 53.388 647.633 53.712C647.021 54.024 646.289 54.18 645.437 54.18ZM656.158 54.18C655.294 54.18 654.544 54.036 653.908 53.748C653.272 53.448 652.78 53.028 652.432 52.488C652.084 51.948 651.91 51.318 651.91 50.598C651.91 49.806 652.132 49.128 652.576 48.564C653.02 48 653.68 47.52 654.556 47.124L656.572 46.206C657.004 46.002 657.34 45.726 657.58 45.378C657.832 45.03 657.958 44.64 657.958 44.208C657.958 43.716 657.796 43.326 657.472 43.038C657.148 42.738 656.71 42.588 656.158 42.588C655.606 42.588 655.162 42.738 654.826 43.038C654.502 43.338 654.34 43.734 654.34 44.226C654.34 44.646 654.466 45.03 654.718 45.378C654.97 45.726 655.306 45.996 655.726 46.188L657.724 47.106C658.672 47.526 659.356 48.024 659.776 48.6C660.196 49.164 660.406 49.83 660.406 50.598C660.406 51.702 660.022 52.578 659.254 53.226C658.498 53.862 657.466 54.18 656.158 54.18ZM656.158 52.254C656.782 52.254 657.274 52.092 657.634 51.768C658.006 51.432 658.192 50.994 658.192 50.454C658.192 50.034 658.066 49.638 657.814 49.266C657.562 48.882 657.214 48.588 656.77 48.384L654.628 47.394C653.812 47.01 653.188 46.554 652.756 46.026C652.336 45.486 652.126 44.844 652.126 44.1C652.126 43.428 652.288 42.834 652.612 42.318C652.936 41.802 653.398 41.4 653.998 41.112C654.61 40.824 655.33 40.68 656.158 40.68C656.986 40.68 657.694 40.824 658.282 41.112C658.882 41.4 659.344 41.802 659.668 42.318C660.004 42.834 660.172 43.428 660.172 44.1C660.172 44.856 659.962 45.498 659.542 46.026C659.122 46.554 658.504 47.01 657.688 47.394L655.528 48.402C655.096 48.594 654.754 48.876 654.502 49.248C654.25 49.62 654.124 50.016 654.124 50.436C654.124 50.976 654.304 51.414 654.664 51.75C655.036 52.086 655.534 52.254 656.158 52.254Z" fill="#1F242A"/>
<rect x="672" width="96" height="96" fill="#CCD3DA"/>
<path d="M683.35 54L683.944 50.724H682.468V49.176H684.214L684.826 45.684H683.044V44.136H685.096L685.672 40.86H687.31L686.716 44.136H689.236L689.812 40.86H691.45L690.856 44.136H692.332V45.684H690.586L689.974 49.176H691.756V50.724H689.704L689.128 54H687.49L688.084 50.724H685.564L684.988 54H683.35ZM685.834 49.176H688.354L688.966 45.684H686.446L685.834 49.176ZM698.265 54.18C697.425 54.18 696.687 54.024 696.051 53.712C695.427 53.388 694.941 52.938 694.593 52.362C694.257 51.774 694.089 51.084 694.089 50.292V44.568C694.089 43.764 694.257 43.074 694.593 42.498C694.941 41.922 695.427 41.478 696.051 41.166C696.687 40.842 697.425 40.68 698.265 40.68C699.117 40.68 699.849 40.842 700.461 41.166C701.085 41.478 701.571 41.922 701.919 42.498C702.267 43.074 702.441 43.764 702.441 44.568H700.173C700.173 43.944 700.005 43.47 699.669 43.146C699.345 42.822 698.877 42.66 698.265 42.66C697.653 42.66 697.179 42.822 696.843 43.146C696.507 43.47 696.339 43.938 696.339 44.55V50.292C696.339 50.904 696.507 51.378 696.843 51.714C697.179 52.038 697.653 52.2 698.265 52.2C698.877 52.2 699.345 52.038 699.669 51.714C700.005 51.378 700.173 50.904 700.173 50.292H702.441C702.441 51.072 702.267 51.756 701.919 52.344C701.571 52.932 701.085 53.388 700.461 53.712C699.849 54.024 699.117 54.18 698.265 54.18ZM709.058 54.18C708.218 54.18 707.48 54.024 706.844 53.712C706.22 53.388 705.734 52.938 705.386 52.362C705.05 51.774 704.882 51.084 704.882 50.292V44.568C704.882 43.764 705.05 43.074 705.386 42.498C705.734 41.922 706.22 41.478 706.844 41.166C707.48 40.842 708.218 40.68 709.058 40.68C709.91 40.68 710.642 40.842 711.254 41.166C711.878 41.478 712.364 41.922 712.712 42.498C713.06 43.074 713.234 43.764 713.234 44.568H710.966C710.966 43.944 710.798 43.47 710.462 43.146C710.138 42.822 709.67 42.66 709.058 42.66C708.446 42.66 707.972 42.822 707.636 43.146C707.3 43.47 707.132 43.938 707.132 44.55V50.292C707.132 50.904 707.3 51.378 707.636 51.714C707.972 52.038 708.446 52.2 709.058 52.2C709.67 52.2 710.138 52.038 710.462 51.714C710.798 51.378 710.966 50.904 710.966 50.292H713.234C713.234 51.072 713.06 51.756 712.712 52.344C712.364 52.932 711.878 53.388 711.254 53.712C710.642 54.024 709.91 54.18 709.058 54.18ZM715.729 54V40.86H719.635C720.523 40.86 721.291 41.028 721.939 41.364C722.599 41.7 723.109 42.174 723.469 42.786C723.829 43.398 724.009 44.124 724.009 44.964V49.878C724.009 50.706 723.829 51.432 723.469 52.056C723.109 52.668 722.599 53.148 721.939 53.496C721.291 53.832 720.523 54 719.635 54H715.729ZM717.979 51.93H719.635C720.283 51.93 720.799 51.75 721.183 51.39C721.567 51.018 721.759 50.514 721.759 49.878V44.964C721.759 44.34 721.567 43.848 721.183 43.488C720.799 43.116 720.283 42.93 719.635 42.93H717.979V51.93ZM730.446 54.18C729.594 54.18 728.85 54.024 728.214 53.712C727.59 53.4 727.104 52.962 726.756 52.398C726.408 51.834 726.234 51.168 726.234 50.4H728.502C728.502 50.988 728.67 51.45 729.006 51.786C729.354 52.11 729.84 52.272 730.464 52.272C731.088 52.272 731.568 52.104 731.904 51.768C732.24 51.432 732.408 50.976 732.408 50.4V49.374C732.408 48.786 732.24 48.33 731.904 48.006C731.568 47.67 731.088 47.502 730.464 47.502H728.988V45.468L731.886 42.786H726.828V40.86H734.172V42.894L730.464 46.296V45.576C731.76 45.576 732.786 45.918 733.542 46.602C734.298 47.286 734.676 48.21 734.676 49.374V50.4C734.676 51.168 734.502 51.834 734.154 52.398C733.806 52.962 733.314 53.4 732.678 53.712C732.042 54.024 731.298 54.18 730.446 54.18ZM737.315 54V40.86H741.221C742.109 40.86 742.877 41.028 743.525 41.364C744.185 41.7 744.695 42.174 745.055 42.786C745.415 43.398 745.595 44.124 745.595 44.964V49.878C745.595 50.706 745.415 51.432 745.055 52.056C744.695 52.668 744.185 53.148 743.525 53.496C742.877 53.832 742.109 54 741.221 54H737.315ZM739.565 51.93H741.221C741.869 51.93 742.385 51.75 742.769 51.39C743.153 51.018 743.345 50.514 743.345 49.878V44.964C743.345 44.34 743.153 43.848 742.769 43.488C742.385 43.116 741.869 42.93 741.221 42.93H739.565V51.93ZM747.388 54L750.7 40.86H753.598L756.928 54H754.624L753.904 50.814H750.412L749.692 54H747.388ZM750.826 48.978H753.49L752.698 45.45C752.566 44.862 752.452 44.334 752.356 43.866C752.26 43.386 752.194 43.038 752.158 42.822C752.122 43.038 752.056 43.386 751.96 43.866C751.876 44.334 751.762 44.856 751.618 45.432L750.826 48.978Z" fill="#1F242A"/>
<rect x="768" width="96" height="96" fill="#E5E9EC"/>
<path d="M779.35 54L779.944 50.724H778.468V49.176H780.214L780.826 45.684H779.044V44.136H781.096L781.672 40.86H783.31L782.716 44.136H785.236L785.812 40.86H787.45L786.856 44.136H788.332V45.684H786.586L785.974 49.176H787.756V50.724H785.704L785.128 54H783.49L784.084 50.724H781.564L780.988 54H779.35ZM781.834 49.176H784.354L784.966 45.684H782.446L781.834 49.176ZM790.377 54V40.86H798.261V42.822H792.591V46.242H797.631V48.186H792.591V52.038H798.261V54H790.377ZM804.968 54.18C803.756 54.18 802.784 53.88 802.052 53.28C801.32 52.668 800.918 51.84 800.846 50.796H803.096C803.144 51.252 803.324 51.606 803.636 51.858C803.96 52.098 804.404 52.218 804.968 52.218C805.592 52.218 806.066 52.056 806.39 51.732C806.714 51.396 806.876 50.934 806.876 50.346V49.068C806.876 48.468 806.714 48.012 806.39 47.7C806.066 47.376 805.592 47.214 804.968 47.214C804.584 47.214 804.254 47.292 803.978 47.448C803.702 47.604 803.492 47.82 803.348 48.096H801.152L801.242 40.86H808.64V42.894H803.366L803.33 46.71H803.852L803.312 47.16C803.312 46.608 803.528 46.176 803.96 45.864C804.404 45.54 804.998 45.378 805.742 45.378C806.81 45.366 807.638 45.69 808.226 46.35C808.826 46.998 809.126 47.904 809.126 49.068V50.346C809.126 51.534 808.754 52.47 808.01 53.154C807.278 53.838 806.264 54.18 804.968 54.18ZM811.963 54V40.86H819.847V42.822H814.177V46.242H819.217V48.186H814.177V52.038H819.847V54H811.963ZM824.196 54L828.084 47.88L827.976 47.808C827.736 48.18 827.412 48.462 827.004 48.654C826.596 48.846 826.14 48.942 825.636 48.942C824.94 48.942 824.328 48.774 823.8 48.438C823.284 48.102 822.882 47.634 822.594 47.034C822.306 46.434 822.162 45.732 822.162 44.928C822.162 44.064 822.342 43.32 822.702 42.696C823.074 42.06 823.59 41.568 824.25 41.22C824.91 40.86 825.678 40.68 826.554 40.68C827.454 40.68 828.234 40.866 828.894 41.238C829.554 41.598 830.064 42.108 830.424 42.768C830.796 43.428 830.982 44.202 830.982 45.09C830.982 45.702 830.88 46.356 830.676 47.052C830.472 47.736 830.178 48.378 829.794 48.978L826.698 54H824.196ZM826.572 47.232C827.232 47.232 827.766 47.022 828.174 46.602C828.582 46.17 828.786 45.6 828.786 44.892C828.786 44.208 828.582 43.656 828.174 43.236C827.766 42.804 827.232 42.588 826.572 42.588C825.912 42.588 825.378 42.804 824.97 43.236C824.562 43.656 824.358 44.208 824.358 44.892C824.358 45.6 824.562 46.17 824.97 46.602C825.378 47.022 825.912 47.232 826.572 47.232ZM833.549 54V40.86H841.433V42.822H835.763V46.242H840.803V48.186H835.763V52.038H841.433V54H833.549ZM848.23 54.18C847.39 54.18 846.652 54.024 846.016 53.712C845.392 53.388 844.906 52.938 844.558 52.362C844.222 51.774 844.054 51.084 844.054 50.292V44.568C844.054 43.764 844.222 43.074 844.558 42.498C844.906 41.922 845.392 41.478 846.016 41.166C846.652 40.842 847.39 40.68 848.23 40.68C849.082 40.68 849.814 40.842 850.426 41.166C851.05 41.478 851.536 41.922 851.884 42.498C852.232 43.074 852.406 43.764 852.406 44.568H850.138C850.138 43.944 849.97 43.47 849.634 43.146C849.31 42.822 848.842 42.66 848.23 42.66C847.618 42.66 847.144 42.822 846.808 43.146C846.472 43.47 846.304 43.938 846.304 44.55V50.292C846.304 50.904 846.472 51.378 846.808 51.714C847.144 52.038 847.618 52.2 848.23 52.2C848.842 52.2 849.31 52.038 849.634 51.714C849.97 51.378 850.138 50.904 850.138 50.292H852.406C852.406 51.072 852.232 51.756 851.884 52.344C851.536 52.932 851.05 53.388 850.426 53.712C849.814 54.024 849.082 54.18 848.23 54.18Z" fill="#1F242A"/>
<rect y="96" width="96" height="96" fill="#F46D7E"/>
<path d="M11.35 150L11.944 146.724H10.468V145.176H12.214L12.826 141.684H11.044V140.136H13.096L13.672 136.86H15.31L14.716 140.136H17.236L17.812 136.86H19.45L18.856 140.136H20.332V141.684H18.586L17.974 145.176H19.756V146.724H17.704L17.128 150H15.49L16.084 146.724H13.564L12.988 150H11.35ZM13.834 145.176H16.354L16.966 141.684H14.446L13.834 145.176ZM22.233 150V136.86H30.405V138.948H24.447V142.458H29.937V144.546H24.483V150H22.233ZM38.6059 150V147.39H32.7559V144.132L37.8139 136.86H40.3339L34.9159 144.726V145.41H38.6059V142.44H40.8559V150H38.6059ZM47.7789 150.18C46.9029 150.18 46.1289 150 45.4569 149.64C44.7969 149.268 44.2809 148.752 43.9089 148.092C43.5489 147.42 43.3689 146.646 43.3689 145.77C43.3689 145.146 43.4709 144.492 43.6749 143.808C43.8909 143.124 44.1849 142.482 44.5569 141.882L47.6529 136.86H50.1549L46.2669 142.98L46.3749 143.052C46.6149 142.68 46.9389 142.398 47.3469 142.206C47.7549 142.014 48.2109 141.918 48.7149 141.918C49.4229 141.918 50.0349 142.086 50.5509 142.422C51.0669 142.758 51.4689 143.226 51.7569 143.826C52.0449 144.426 52.1889 145.128 52.1889 145.932C52.1889 146.784 52.0029 147.528 51.6309 148.164C51.2709 148.8 50.7609 149.298 50.1009 149.658C49.4529 150.006 48.6789 150.18 47.7789 150.18ZM47.7789 148.272C48.4389 148.272 48.9729 148.062 49.3809 147.642C49.7889 147.21 49.9929 146.652 49.9929 145.968C49.9929 145.26 49.7889 144.696 49.3809 144.276C48.9729 143.844 48.4389 143.628 47.7789 143.628C47.1189 143.628 46.5849 143.844 46.1769 144.276C45.7689 144.696 45.5649 145.26 45.5649 145.968C45.5649 146.652 45.7689 147.21 46.1769 147.642C46.5849 148.062 47.1189 148.272 47.7789 148.272ZM54.5219 150V136.86H58.4279C59.3159 136.86 60.0839 137.028 60.7319 137.364C61.3919 137.7 61.9019 138.174 62.2619 138.786C62.6219 139.398 62.8019 140.124 62.8019 140.964V145.878C62.8019 146.706 62.6219 147.432 62.2619 148.056C61.9019 148.668 61.3919 149.148 60.7319 149.496C60.0839 149.832 59.3159 150 58.4279 150H54.5219ZM56.7719 147.93H58.4279C59.0759 147.93 59.5919 147.75 59.9759 147.39C60.3599 147.018 60.5519 146.514 60.5519 145.878V140.964C60.5519 140.34 60.3599 139.848 59.9759 139.488C59.5919 139.116 59.0759 138.93 58.4279 138.93H56.7719V147.93ZM66.7548 150L71.5068 138.948H67.2948V140.856H65.0448V136.86H73.7568V138.984L69.1668 150H66.7548ZM76.3418 150V136.86H84.2258V138.822H78.5558V142.242H83.5958V144.186H78.5558V148.038H84.2258V150H76.3418Z" fill="#1F242A"/>
<rect x="96" y="96" width="96" height="96" fill="#F4A582"/>
<path d="M107.35 150L107.944 146.724H106.468V145.176H108.214L108.826 141.684H107.044V140.136H109.096L109.672 136.86H111.31L110.716 140.136H113.236L113.812 136.86H115.45L114.856 140.136H116.332V141.684H114.586L113.974 145.176H115.756V146.724H113.704L113.128 150H111.49L112.084 146.724H109.564L108.988 150H107.35ZM109.834 145.176H112.354L112.966 141.684H110.446L109.834 145.176ZM118.233 150V136.86H126.405V138.948H120.447V142.458H125.937V144.546H120.483V150H118.233ZM134.606 150V147.39H128.756V144.132L133.814 136.86H136.334L130.916 144.726V145.41H134.606V142.44H136.856V150H134.606ZM139.009 150L142.321 136.86H145.219L148.549 150H146.245L145.525 146.814H142.033L141.313 150H139.009ZM142.447 144.978H145.111L144.319 141.45C144.187 140.862 144.073 140.334 143.977 139.866C143.881 139.386 143.815 139.038 143.779 138.822C143.743 139.038 143.677 139.386 143.581 139.866C143.497 140.334 143.383 140.856 143.239 141.432L142.447 144.978ZM154.554 150.18C153.342 150.18 152.37 149.88 151.638 149.28C150.906 148.668 150.504 147.84 150.432 146.796H152.682C152.73 147.252 152.91 147.606 153.222 147.858C153.546 148.098 153.99 148.218 154.554 148.218C155.178 148.218 155.652 148.056 155.976 147.732C156.3 147.396 156.462 146.934 156.462 146.346V145.068C156.462 144.468 156.3 144.012 155.976 143.7C155.652 143.376 155.178 143.214 154.554 143.214C154.17 143.214 153.84 143.292 153.564 143.448C153.288 143.604 153.078 143.82 152.934 144.096H150.738L150.828 136.86H158.226V138.894H152.952L152.916 142.71H153.438L152.898 143.16C152.898 142.608 153.114 142.176 153.546 141.864C153.99 141.54 154.584 141.378 155.328 141.378C156.396 141.366 157.224 141.69 157.812 142.35C158.412 142.998 158.712 143.904 158.712 145.068V146.346C158.712 147.534 158.34 148.47 157.596 149.154C156.864 149.838 155.85 150.18 154.554 150.18ZM165.365 150.18C164.501 150.18 163.751 150.036 163.115 149.748C162.479 149.448 161.987 149.028 161.639 148.488C161.291 147.948 161.117 147.318 161.117 146.598C161.117 145.806 161.339 145.128 161.783 144.564C162.227 144 162.887 143.52 163.763 143.124L165.779 142.206C166.211 142.002 166.547 141.726 166.787 141.378C167.039 141.03 167.165 140.64 167.165 140.208C167.165 139.716 167.003 139.326 166.679 139.038C166.355 138.738 165.917 138.588 165.365 138.588C164.813 138.588 164.369 138.738 164.033 139.038C163.709 139.338 163.547 139.734 163.547 140.226C163.547 140.646 163.673 141.03 163.925 141.378C164.177 141.726 164.513 141.996 164.933 142.188L166.931 143.106C167.879 143.526 168.563 144.024 168.983 144.6C169.403 145.164 169.613 145.83 169.613 146.598C169.613 147.702 169.229 148.578 168.461 149.226C167.705 149.862 166.673 150.18 165.365 150.18ZM165.365 148.254C165.989 148.254 166.481 148.092 166.841 147.768C167.213 147.432 167.399 146.994 167.399 146.454C167.399 146.034 167.273 145.638 167.021 145.266C166.769 144.882 166.421 144.588 165.977 144.384L163.835 143.394C163.019 143.01 162.395 142.554 161.963 142.026C161.543 141.486 161.333 140.844 161.333 140.1C161.333 139.428 161.495 138.834 161.819 138.318C162.143 137.802 162.605 137.4 163.205 137.112C163.817 136.824 164.537 136.68 165.365 136.68C166.193 136.68 166.901 136.824 167.489 137.112C168.089 137.4 168.551 137.802 168.875 138.318C169.211 138.834 169.379 139.428 169.379 140.1C169.379 140.856 169.169 141.498 168.749 142.026C168.329 142.554 167.711 143.01 166.895 143.394L164.735 144.402C164.303 144.594 163.961 144.876 163.709 145.248C163.457 145.62 163.331 146.016 163.331 146.436C163.331 146.976 163.511 147.414 163.871 147.75C164.243 148.086 164.741 148.254 165.365 148.254ZM172.18 150V147.822L176.284 143.7C176.86 143.112 177.286 142.584 177.562 142.116C177.838 141.636 177.976 141.144 177.976 140.64C177.976 140.028 177.808 139.554 177.472 139.218C177.136 138.87 176.68 138.696 176.104 138.696C175.468 138.696 174.97 138.882 174.61 139.254C174.25 139.614 174.07 140.118 174.07 140.766H171.82C171.832 139.926 172.012 139.206 172.36 138.606C172.72 137.994 173.224 137.52 173.872 137.184C174.52 136.848 175.276 136.68 176.14 136.68C176.968 136.68 177.688 136.836 178.3 137.148C178.912 137.46 179.386 137.898 179.722 138.462C180.058 139.026 180.226 139.698 180.226 140.478C180.226 141.282 180.016 142.068 179.596 142.836C179.188 143.592 178.528 144.408 177.616 145.284L174.88 147.966H180.388V150H172.18Z" fill="#1F242A"/>
<rect x="192" y="96" width="96" height="96" fill="#E8CE9B"/>
<path d="M203.35 150L203.944 146.724H202.468V145.176H204.214L204.826 141.684H203.044V140.136H205.096L205.672 136.86H207.31L206.716 140.136H209.236L209.812 136.86H211.45L210.856 140.136H212.332V141.684H210.586L209.974 145.176H211.756V146.724H209.704L209.128 150H207.49L208.084 146.724H205.564L204.988 150H203.35ZM205.834 145.176H208.354L208.966 141.684H206.446L205.834 145.176ZM214.377 150V136.86H222.261V138.822H216.591V142.242H221.631V144.186H216.591V148.038H222.261V150H214.377ZM228.986 150.18C228.122 150.18 227.372 150.036 226.736 149.748C226.1 149.448 225.608 149.028 225.26 148.488C224.912 147.948 224.738 147.318 224.738 146.598C224.738 145.806 224.96 145.128 225.404 144.564C225.848 144 226.508 143.52 227.384 143.124L229.4 142.206C229.832 142.002 230.168 141.726 230.408 141.378C230.66 141.03 230.786 140.64 230.786 140.208C230.786 139.716 230.624 139.326 230.3 139.038C229.976 138.738 229.538 138.588 228.986 138.588C228.434 138.588 227.99 138.738 227.654 139.038C227.33 139.338 227.168 139.734 227.168 140.226C227.168 140.646 227.294 141.03 227.546 141.378C227.798 141.726 228.134 141.996 228.554 142.188L230.552 143.106C231.5 143.526 232.184 144.024 232.604 144.6C233.024 145.164 233.234 145.83 233.234 146.598C233.234 147.702 232.85 148.578 232.082 149.226C231.326 149.862 230.294 150.18 228.986 150.18ZM228.986 148.254C229.61 148.254 230.102 148.092 230.462 147.768C230.834 147.432 231.02 146.994 231.02 146.454C231.02 146.034 230.894 145.638 230.642 145.266C230.39 144.882 230.042 144.588 229.598 144.384L227.456 143.394C226.64 143.01 226.016 142.554 225.584 142.026C225.164 141.486 224.954 140.844 224.954 140.1C224.954 139.428 225.116 138.834 225.44 138.318C225.764 137.802 226.226 137.4 226.826 137.112C227.438 136.824 228.158 136.68 228.986 136.68C229.814 136.68 230.522 136.824 231.11 137.112C231.71 137.4 232.172 137.802 232.496 138.318C232.832 138.834 233 139.428 233 140.1C233 140.856 232.79 141.498 232.37 142.026C231.95 142.554 231.332 143.01 230.516 143.394L228.356 144.402C227.924 144.594 227.582 144.876 227.33 145.248C227.078 145.62 226.952 146.016 226.952 146.436C226.952 146.976 227.132 147.414 227.492 147.75C227.864 148.086 228.362 148.254 228.986 148.254ZM239.851 150.18C239.011 150.18 238.273 150.024 237.637 149.712C237.013 149.388 236.527 148.938 236.179 148.362C235.843 147.774 235.675 147.084 235.675 146.292V140.568C235.675 139.764 235.843 139.074 236.179 138.498C236.527 137.922 237.013 137.478 237.637 137.166C238.273 136.842 239.011 136.68 239.851 136.68C240.703 136.68 241.435 136.842 242.047 137.166C242.671 137.478 243.157 137.922 243.505 138.498C243.853 139.074 244.027 139.764 244.027 140.568H241.759C241.759 139.944 241.591 139.47 241.255 139.146C240.931 138.822 240.463 138.66 239.851 138.66C239.239 138.66 238.765 138.822 238.429 139.146C238.093 139.47 237.925 139.938 237.925 140.55V146.292C237.925 146.904 238.093 147.378 238.429 147.714C238.765 148.038 239.239 148.2 239.851 148.2C240.463 148.2 240.931 148.038 241.255 147.714C241.591 147.378 241.759 146.904 241.759 146.292H244.027C244.027 147.072 243.853 147.756 243.505 148.344C243.157 148.932 242.671 149.388 242.047 149.712C241.435 150.024 240.703 150.18 239.851 150.18ZM246.756 150V136.86H254.64V138.822H248.97V142.242H254.01V144.186H248.97V148.038H254.64V150H246.756ZM258.989 150L262.877 143.88L262.769 143.808C262.529 144.18 262.205 144.462 261.797 144.654C261.389 144.846 260.933 144.942 260.429 144.942C259.733 144.942 259.121 144.774 258.593 144.438C258.077 144.102 257.675 143.634 257.387 143.034C257.099 142.434 256.955 141.732 256.955 140.928C256.955 140.064 257.135 139.32 257.495 138.696C257.867 138.06 258.383 137.568 259.043 137.22C259.703 136.86 260.471 136.68 261.347 136.68C262.247 136.68 263.027 136.866 263.687 137.238C264.347 137.598 264.857 138.108 265.217 138.768C265.589 139.428 265.775 140.202 265.775 141.09C265.775 141.702 265.673 142.356 265.469 143.052C265.265 143.736 264.971 144.378 264.587 144.978L261.491 150H258.989ZM261.365 143.232C262.025 143.232 262.559 143.022 262.967 142.602C263.375 142.17 263.579 141.6 263.579 140.892C263.579 140.208 263.375 139.656 262.967 139.236C262.559 138.804 262.025 138.588 261.365 138.588C260.705 138.588 260.171 138.804 259.763 139.236C259.355 139.656 259.151 140.208 259.151 140.892C259.151 141.6 259.355 142.17 259.763 142.602C260.171 143.022 260.705 143.232 261.365 143.232ZM268.144 150V136.86H272.176C273.448 136.86 274.456 137.166 275.2 137.778C275.944 138.378 276.316 139.2 276.316 140.244C276.316 140.832 276.184 141.342 275.92 141.774C275.656 142.206 275.296 142.542 274.84 142.782C274.396 143.022 273.88 143.142 273.292 143.142V143.07C273.928 143.058 274.492 143.178 274.984 143.43C275.488 143.67 275.884 144.03 276.172 144.51C276.472 144.99 276.622 145.572 276.622 146.256C276.622 147.012 276.448 147.672 276.1 148.236C275.752 148.8 275.26 149.238 274.624 149.55C274 149.85 273.25 150 272.374 150H268.144ZM270.34 148.128H272.23C272.89 148.128 273.406 147.954 273.778 147.606C274.162 147.246 274.354 146.76 274.354 146.148C274.354 145.536 274.162 145.044 273.778 144.672C273.406 144.288 272.89 144.096 272.23 144.096H270.34V148.128ZM270.34 142.278H272.14C272.74 142.278 273.208 142.122 273.544 141.81C273.892 141.486 274.066 141.048 274.066 140.496C274.066 139.944 273.892 139.512 273.544 139.2C273.208 138.888 272.74 138.732 272.14 138.732H270.34V142.278Z" fill="#1F242A"/>
<rect x="288" y="96" width="96" height="96" fill="#93C68C"/>
<path d="M299.35 150L299.944 146.724H298.468V145.176H300.214L300.826 141.684H299.044V140.136H301.096L301.672 136.86H303.31L302.716 140.136H305.236L305.812 136.86H307.45L306.856 140.136H308.332V141.684H306.586L305.974 145.176H307.756V146.724H305.704L305.128 150H303.49L304.084 146.724H301.564L300.988 150H299.35ZM301.834 145.176H304.354L304.966 141.684H302.446L301.834 145.176ZM311.817 150L315.705 143.88L315.597 143.808C315.357 144.18 315.033 144.462 314.625 144.654C314.217 144.846 313.761 144.942 313.257 144.942C312.561 144.942 311.949 144.774 311.421 144.438C310.905 144.102 310.503 143.634 310.215 143.034C309.927 142.434 309.783 141.732 309.783 140.928C309.783 140.064 309.963 139.32 310.323 138.696C310.695 138.06 311.211 137.568 311.871 137.22C312.531 136.86 313.299 136.68 314.175 136.68C315.075 136.68 315.855 136.866 316.515 137.238C317.175 137.598 317.685 138.108 318.045 138.768C318.417 139.428 318.603 140.202 318.603 141.09C318.603 141.702 318.501 142.356 318.297 143.052C318.093 143.736 317.799 144.378 317.415 144.978L314.319 150H311.817ZM314.193 143.232C314.853 143.232 315.387 143.022 315.795 142.602C316.203 142.17 316.407 141.6 316.407 140.892C316.407 140.208 316.203 139.656 315.795 139.236C315.387 138.804 314.853 138.588 314.193 138.588C313.533 138.588 312.999 138.804 312.591 139.236C312.183 139.656 311.979 140.208 311.979 140.892C311.979 141.6 312.183 142.17 312.591 142.602C312.999 143.022 313.533 143.232 314.193 143.232ZM324.86 150.18C324.008 150.18 323.264 150.024 322.628 149.712C322.004 149.4 321.518 148.962 321.17 148.398C320.822 147.834 320.648 147.168 320.648 146.4H322.916C322.916 146.988 323.084 147.45 323.42 147.786C323.768 148.11 324.254 148.272 324.878 148.272C325.502 148.272 325.982 148.104 326.318 147.768C326.654 147.432 326.822 146.976 326.822 146.4V145.374C326.822 144.786 326.654 144.33 326.318 144.006C325.982 143.67 325.502 143.502 324.878 143.502H323.402V141.468L326.3 138.786H321.242V136.86H328.586V138.894L324.878 142.296V141.576C326.174 141.576 327.2 141.918 327.956 142.602C328.712 143.286 329.09 144.21 329.09 145.374V146.4C329.09 147.168 328.916 147.834 328.568 148.398C328.22 148.962 327.728 149.4 327.092 149.712C326.456 150.024 325.712 150.18 324.86 150.18ZM335.851 150.18C335.011 150.18 334.273 150.024 333.637 149.712C333.013 149.388 332.527 148.938 332.179 148.362C331.843 147.774 331.675 147.084 331.675 146.292V140.568C331.675 139.764 331.843 139.074 332.179 138.498C332.527 137.922 333.013 137.478 333.637 137.166C334.273 136.842 335.011 136.68 335.851 136.68C336.703 136.68 337.435 136.842 338.047 137.166C338.671 137.478 339.157 137.922 339.505 138.498C339.853 139.074 340.027 139.764 340.027 140.568H337.759C337.759 139.944 337.591 139.47 337.255 139.146C336.931 138.822 336.463 138.66 335.851 138.66C335.239 138.66 334.765 138.822 334.429 139.146C334.093 139.47 333.925 139.938 333.925 140.55V146.292C333.925 146.904 334.093 147.378 334.429 147.714C334.765 148.038 335.239 148.2 335.851 148.2C336.463 148.2 336.931 148.038 337.255 147.714C337.591 147.378 337.759 146.904 337.759 146.292H340.027C340.027 147.072 339.853 147.756 339.505 148.344C339.157 148.932 338.671 149.388 338.047 149.712C337.435 150.024 336.703 150.18 335.851 150.18ZM346.572 150.18C345.696 150.18 344.922 150 344.25 149.64C343.59 149.268 343.074 148.752 342.702 148.092C342.342 147.42 342.162 146.646 342.162 145.77C342.162 145.146 342.264 144.492 342.468 143.808C342.684 143.124 342.978 142.482 343.35 141.882L346.446 136.86H348.948L345.06 142.98L345.168 143.052C345.408 142.68 345.732 142.398 346.14 142.206C346.548 142.014 347.004 141.918 347.508 141.918C348.216 141.918 348.828 142.086 349.344 142.422C349.86 142.758 350.262 143.226 350.55 143.826C350.838 144.426 350.982 145.128 350.982 145.932C350.982 146.784 350.796 147.528 350.424 148.164C350.064 148.8 349.554 149.298 348.894 149.658C348.246 150.006 347.472 150.18 346.572 150.18ZM346.572 148.272C347.232 148.272 347.766 148.062 348.174 147.642C348.582 147.21 348.786 146.652 348.786 145.968C348.786 145.26 348.582 144.696 348.174 144.276C347.766 143.844 347.232 143.628 346.572 143.628C345.912 143.628 345.378 143.844 344.97 144.276C344.562 144.696 344.358 145.26 344.358 145.968C344.358 146.652 344.562 147.21 344.97 147.642C345.378 148.062 345.912 148.272 346.572 148.272ZM357.365 150.18C356.501 150.18 355.751 150.036 355.115 149.748C354.479 149.448 353.987 149.028 353.639 148.488C353.291 147.948 353.117 147.318 353.117 146.598C353.117 145.806 353.339 145.128 353.783 144.564C354.227 144 354.887 143.52 355.763 143.124L357.779 142.206C358.211 142.002 358.547 141.726 358.787 141.378C359.039 141.03 359.165 140.64 359.165 140.208C359.165 139.716 359.003 139.326 358.679 139.038C358.355 138.738 357.917 138.588 357.365 138.588C356.813 138.588 356.369 138.738 356.033 139.038C355.709 139.338 355.547 139.734 355.547 140.226C355.547 140.646 355.673 141.03 355.925 141.378C356.177 141.726 356.513 141.996 356.933 142.188L358.931 143.106C359.879 143.526 360.563 144.024 360.983 144.6C361.403 145.164 361.613 145.83 361.613 146.598C361.613 147.702 361.229 148.578 360.461 149.226C359.705 149.862 358.673 150.18 357.365 150.18ZM357.365 148.254C357.989 148.254 358.481 148.092 358.841 147.768C359.213 147.432 359.399 146.994 359.399 146.454C359.399 146.034 359.273 145.638 359.021 145.266C358.769 144.882 358.421 144.588 357.977 144.384L355.835 143.394C355.019 143.01 354.395 142.554 353.963 142.026C353.543 141.486 353.333 140.844 353.333 140.1C353.333 139.428 353.495 138.834 353.819 138.318C354.143 137.802 354.605 137.4 355.205 137.112C355.817 136.824 356.537 136.68 357.365 136.68C358.193 136.68 358.901 136.824 359.489 137.112C360.089 137.4 360.551 137.802 360.875 138.318C361.211 138.834 361.379 139.428 361.379 140.1C361.379 140.856 361.169 141.498 360.749 142.026C360.329 142.554 359.711 143.01 358.895 143.394L356.735 144.402C356.303 144.594 355.961 144.876 355.709 145.248C355.457 145.62 355.331 146.016 355.331 146.436C355.331 146.976 355.511 147.414 355.871 147.75C356.243 148.086 356.741 148.254 357.365 148.254ZM368.23 150.18C367.39 150.18 366.652 150.024 366.016 149.712C365.392 149.388 364.906 148.938 364.558 148.362C364.222 147.774 364.054 147.084 364.054 146.292V140.568C364.054 139.764 364.222 139.074 364.558 138.498C364.906 137.922 365.392 137.478 366.016 137.166C366.652 136.842 367.39 136.68 368.23 136.68C369.082 136.68 369.814 136.842 370.426 137.166C371.05 137.478 371.536 137.922 371.884 138.498C372.232 139.074 372.406 139.764 372.406 140.568H370.138C370.138 139.944 369.97 139.47 369.634 139.146C369.31 138.822 368.842 138.66 368.23 138.66C367.618 138.66 367.144 138.822 366.808 139.146C366.472 139.47 366.304 139.938 366.304 140.55V146.292C366.304 146.904 366.472 147.378 366.808 147.714C367.144 148.038 367.618 148.2 368.23 148.2C368.842 148.2 369.31 148.038 369.634 147.714C369.97 147.378 370.138 146.904 370.138 146.292H372.406C372.406 147.072 372.232 147.756 371.884 148.344C371.536 148.932 371.05 149.388 370.426 149.712C369.814 150.024 369.082 150.18 368.23 150.18Z" fill="#1F242A"/>
<rect x="384" y="96" width="96" height="96" fill="#56C6B2"/>
<path d="M395.35 150L395.944 146.724H394.468V145.176H396.214L396.826 141.684H395.044V140.136H397.096L397.672 136.86H399.31L398.716 140.136H401.236L401.812 136.86H403.45L402.856 140.136H404.332V141.684H402.586L401.974 145.176H403.756V146.724H401.704L401.128 150H399.49L400.084 146.724H397.564L396.988 150H395.35ZM397.834 145.176H400.354L400.966 141.684H398.446L397.834 145.176ZM410.175 150.18C408.963 150.18 407.991 149.88 407.259 149.28C406.527 148.668 406.125 147.84 406.053 146.796H408.303C408.351 147.252 408.531 147.606 408.843 147.858C409.167 148.098 409.611 148.218 410.175 148.218C410.799 148.218 411.273 148.056 411.597 147.732C411.921 147.396 412.083 146.934 412.083 146.346V145.068C412.083 144.468 411.921 144.012 411.597 143.7C411.273 143.376 410.799 143.214 410.175 143.214C409.791 143.214 409.461 143.292 409.185 143.448C408.909 143.604 408.699 143.82 408.555 144.096H406.359L406.449 136.86H413.847V138.894H408.573L408.537 142.71H409.059L408.519 143.16C408.519 142.608 408.735 142.176 409.167 141.864C409.611 141.54 410.205 141.378 410.949 141.378C412.017 141.366 412.845 141.69 413.433 142.35C414.033 142.998 414.333 143.904 414.333 145.068V146.346C414.333 147.534 413.961 148.47 413.217 149.154C412.485 149.838 411.471 150.18 410.175 150.18ZM420.986 150.18C420.11 150.18 419.336 150 418.664 149.64C418.004 149.268 417.488 148.752 417.116 148.092C416.756 147.42 416.576 146.646 416.576 145.77C416.576 145.146 416.678 144.492 416.882 143.808C417.098 143.124 417.392 142.482 417.764 141.882L420.86 136.86H423.362L419.474 142.98L419.582 143.052C419.822 142.68 420.146 142.398 420.554 142.206C420.962 142.014 421.418 141.918 421.922 141.918C422.63 141.918 423.242 142.086 423.758 142.422C424.274 142.758 424.676 143.226 424.964 143.826C425.252 144.426 425.396 145.128 425.396 145.932C425.396 146.784 425.21 147.528 424.838 148.164C424.478 148.8 423.968 149.298 423.308 149.658C422.66 150.006 421.886 150.18 420.986 150.18ZM420.986 148.272C421.646 148.272 422.18 148.062 422.588 147.642C422.996 147.21 423.2 146.652 423.2 145.968C423.2 145.26 422.996 144.696 422.588 144.276C422.18 143.844 421.646 143.628 420.986 143.628C420.326 143.628 419.792 143.844 419.384 144.276C418.976 144.696 418.772 145.26 418.772 145.968C418.772 146.652 418.976 147.21 419.384 147.642C419.792 148.062 420.326 148.272 420.986 148.272ZM431.851 150.18C431.011 150.18 430.273 150.024 429.637 149.712C429.013 149.388 428.527 148.938 428.179 148.362C427.843 147.774 427.675 147.084 427.675 146.292V140.568C427.675 139.764 427.843 139.074 428.179 138.498C428.527 137.922 429.013 137.478 429.637 137.166C430.273 136.842 431.011 136.68 431.851 136.68C432.703 136.68 433.435 136.842 434.047 137.166C434.671 137.478 435.157 137.922 435.505 138.498C435.853 139.074 436.027 139.764 436.027 140.568H433.759C433.759 139.944 433.591 139.47 433.255 139.146C432.931 138.822 432.463 138.66 431.851 138.66C431.239 138.66 430.765 138.822 430.429 139.146C430.093 139.47 429.925 139.938 429.925 140.55V146.292C429.925 146.904 430.093 147.378 430.429 147.714C430.765 148.038 431.239 148.2 431.851 148.2C432.463 148.2 432.931 148.038 433.255 147.714C433.591 147.378 433.759 146.904 433.759 146.292H436.027C436.027 147.072 435.853 147.756 435.505 148.344C435.157 148.932 434.671 149.388 434.047 149.712C433.435 150.024 432.703 150.18 431.851 150.18ZM442.572 150.18C441.696 150.18 440.922 150 440.25 149.64C439.59 149.268 439.074 148.752 438.702 148.092C438.342 147.42 438.162 146.646 438.162 145.77C438.162 145.146 438.264 144.492 438.468 143.808C438.684 143.124 438.978 142.482 439.35 141.882L442.446 136.86H444.948L441.06 142.98L441.168 143.052C441.408 142.68 441.732 142.398 442.14 142.206C442.548 142.014 443.004 141.918 443.508 141.918C444.216 141.918 444.828 142.086 445.344 142.422C445.86 142.758 446.262 143.226 446.55 143.826C446.838 144.426 446.982 145.128 446.982 145.932C446.982 146.784 446.796 147.528 446.424 148.164C446.064 148.8 445.554 149.298 444.894 149.658C444.246 150.006 443.472 150.18 442.572 150.18ZM442.572 148.272C443.232 148.272 443.766 148.062 444.174 147.642C444.582 147.21 444.786 146.652 444.786 145.968C444.786 145.26 444.582 144.696 444.174 144.276C443.766 143.844 443.232 143.628 442.572 143.628C441.912 143.628 441.378 143.844 440.97 144.276C440.562 144.696 440.358 145.26 440.358 145.968C440.358 146.652 440.562 147.21 440.97 147.642C441.378 148.062 441.912 148.272 442.572 148.272ZM449.351 150V136.86H453.383C454.655 136.86 455.663 137.166 456.407 137.778C457.151 138.378 457.523 139.2 457.523 140.244C457.523 140.832 457.391 141.342 457.127 141.774C456.863 142.206 456.503 142.542 456.047 142.782C455.603 143.022 455.087 143.142 454.499 143.142V143.07C455.135 143.058 455.699 143.178 456.191 143.43C456.695 143.67 457.091 144.03 457.379 144.51C457.679 144.99 457.829 145.572 457.829 146.256C457.829 147.012 457.655 147.672 457.307 148.236C456.959 148.8 456.467 149.238 455.831 149.55C455.207 149.85 454.457 150 453.581 150H449.351ZM451.547 148.128H453.437C454.097 148.128 454.613 147.954 454.985 147.606C455.369 147.246 455.561 146.76 455.561 146.148C455.561 145.536 455.369 145.044 454.985 144.672C454.613 144.288 454.097 144.096 453.437 144.096H451.547V148.128ZM451.547 142.278H453.347C453.947 142.278 454.415 142.122 454.751 141.81C455.099 141.486 455.273 141.048 455.273 140.496C455.273 139.944 455.099 139.512 454.751 139.2C454.415 138.888 453.947 138.732 453.347 138.732H451.547V142.278ZM460.18 150V147.822L464.284 143.7C464.86 143.112 465.286 142.584 465.562 142.116C465.838 141.636 465.976 141.144 465.976 140.64C465.976 140.028 465.808 139.554 465.472 139.218C465.136 138.87 464.68 138.696 464.104 138.696C463.468 138.696 462.97 138.882 462.61 139.254C462.25 139.614 462.07 140.118 462.07 140.766H459.82C459.832 139.926 460.012 139.206 460.36 138.606C460.72 137.994 461.224 137.52 461.872 137.184C462.52 136.848 463.276 136.68 464.14 136.68C464.968 136.68 465.688 136.836 466.3 137.148C466.912 137.46 467.386 137.898 467.722 138.462C468.058 139.026 468.226 139.698 468.226 140.478C468.226 141.282 468.016 142.068 467.596 142.836C467.188 143.592 466.528 144.408 465.616 145.284L462.88 147.966H468.388V150H460.18Z" fill="#1F242A"/>
<rect x="480" y="96" width="96" height="96" fill="#7AC6DB"/>
<path d="M491.35 150L491.944 146.724H490.468V145.176H492.214L492.826 141.684H491.044V140.136H493.096L493.672 136.86H495.31L494.716 140.136H497.236L497.812 136.86H499.45L498.856 140.136H500.332V141.684H498.586L497.974 145.176H499.756V146.724H497.704L497.128 150H495.49L496.084 146.724H493.564L492.988 150H491.35ZM493.834 145.176H496.354L496.966 141.684H494.446L493.834 145.176ZM503.583 150L508.335 138.948H504.123V140.856H501.873V136.86H510.585V138.984L505.995 150H503.583ZM512.216 150L515.528 136.86H518.426L521.756 150H519.452L518.732 146.814H515.24L514.52 150H512.216ZM515.654 144.978H518.318L517.526 141.45C517.394 140.862 517.28 140.334 517.184 139.866C517.088 139.386 517.022 139.038 516.986 138.822C516.95 139.038 516.884 139.386 516.788 139.866C516.704 140.334 516.59 140.856 516.446 141.432L515.654 144.978ZM527.851 150.18C527.011 150.18 526.273 150.024 525.637 149.712C525.013 149.388 524.527 148.938 524.179 148.362C523.843 147.774 523.675 147.084 523.675 146.292V140.568C523.675 139.764 523.843 139.074 524.179 138.498C524.527 137.922 525.013 137.478 525.637 137.166C526.273 136.842 527.011 136.68 527.851 136.68C528.703 136.68 529.435 136.842 530.047 137.166C530.671 137.478 531.157 137.922 531.505 138.498C531.853 139.074 532.027 139.764 532.027 140.568H529.759C529.759 139.944 529.591 139.47 529.255 139.146C528.931 138.822 528.463 138.66 527.851 138.66C527.239 138.66 526.765 138.822 526.429 139.146C526.093 139.47 525.925 139.938 525.925 140.55V146.292C525.925 146.904 526.093 147.378 526.429 147.714C526.765 148.038 527.239 148.2 527.851 148.2C528.463 148.2 528.931 148.038 529.255 147.714C529.591 147.378 529.759 146.904 529.759 146.292H532.027C532.027 147.072 531.853 147.756 531.505 148.344C531.157 148.932 530.671 149.388 530.047 149.712C529.435 150.024 528.703 150.18 527.851 150.18ZM538.572 150.18C537.696 150.18 536.922 150 536.25 149.64C535.59 149.268 535.074 148.752 534.702 148.092C534.342 147.42 534.162 146.646 534.162 145.77C534.162 145.146 534.264 144.492 534.468 143.808C534.684 143.124 534.978 142.482 535.35 141.882L538.446 136.86H540.948L537.06 142.98L537.168 143.052C537.408 142.68 537.732 142.398 538.14 142.206C538.548 142.014 539.004 141.918 539.508 141.918C540.216 141.918 540.828 142.086 541.344 142.422C541.86 142.758 542.262 143.226 542.55 143.826C542.838 144.426 542.982 145.128 542.982 145.932C542.982 146.784 542.796 147.528 542.424 148.164C542.064 148.8 541.554 149.298 540.894 149.658C540.246 150.006 539.472 150.18 538.572 150.18ZM538.572 148.272C539.232 148.272 539.766 148.062 540.174 147.642C540.582 147.21 540.786 146.652 540.786 145.968C540.786 145.26 540.582 144.696 540.174 144.276C539.766 143.844 539.232 143.628 538.572 143.628C537.912 143.628 537.378 143.844 536.97 144.276C536.562 144.696 536.358 145.26 536.358 145.968C536.358 146.652 536.562 147.21 536.97 147.642C537.378 148.062 537.912 148.272 538.572 148.272ZM545.315 150V136.86H549.221C550.109 136.86 550.877 137.028 551.525 137.364C552.185 137.7 552.695 138.174 553.055 138.786C553.415 139.398 553.595 140.124 553.595 140.964V145.878C553.595 146.706 553.415 147.432 553.055 148.056C552.695 148.668 552.185 149.148 551.525 149.496C550.877 149.832 550.109 150 549.221 150H545.315ZM547.565 147.93H549.221C549.869 147.93 550.385 147.75 550.769 147.39C551.153 147.018 551.345 146.514 551.345 145.878V140.964C551.345 140.34 551.153 139.848 550.769 139.488C550.385 139.116 549.869 138.93 549.221 138.93H547.565V147.93ZM556.144 150V136.86H560.176C561.448 136.86 562.456 137.166 563.2 137.778C563.944 138.378 564.316 139.2 564.316 140.244C564.316 140.832 564.184 141.342 563.92 141.774C563.656 142.206 563.296 142.542 562.84 142.782C562.396 143.022 561.88 143.142 561.292 143.142V143.07C561.928 143.058 562.492 143.178 562.984 143.43C563.488 143.67 563.884 144.03 564.172 144.51C564.472 144.99 564.622 145.572 564.622 146.256C564.622 147.012 564.448 147.672 564.1 148.236C563.752 148.8 563.26 149.238 562.624 149.55C562 149.85 561.25 150 560.374 150H556.144ZM558.34 148.128H560.23C560.89 148.128 561.406 147.954 561.778 147.606C562.162 147.246 562.354 146.76 562.354 146.148C562.354 145.536 562.162 145.044 561.778 144.672C561.406 144.288 560.89 144.096 560.23 144.096H558.34V148.128ZM558.34 142.278H560.14C560.74 142.278 561.208 142.122 561.544 141.81C561.892 141.486 562.066 141.048 562.066 140.496C562.066 139.944 561.892 139.512 561.544 139.2C561.208 138.888 560.74 138.732 560.14 138.732H558.34V142.278Z" fill="#1F242A"/>
<rect x="576" y="96" width="96" height="96" fill="#60AAFB"/>
<path d="M587.35 150L587.944 146.724H586.468V145.176H588.214L588.826 141.684H587.044V140.136H589.096L589.672 136.86H591.31L590.716 140.136H593.236L593.812 136.86H595.45L594.856 140.136H596.332V141.684H594.586L593.974 145.176H595.756V146.724H593.704L593.128 150H591.49L592.084 146.724H589.564L588.988 150H587.35ZM589.834 145.176H592.354L592.966 141.684H590.446L589.834 145.176ZM602.193 150.18C601.317 150.18 600.543 150 599.871 149.64C599.211 149.268 598.695 148.752 598.323 148.092C597.963 147.42 597.783 146.646 597.783 145.77C597.783 145.146 597.885 144.492 598.089 143.808C598.305 143.124 598.599 142.482 598.971 141.882L602.067 136.86H604.569L600.681 142.98L600.789 143.052C601.029 142.68 601.353 142.398 601.761 142.206C602.169 142.014 602.625 141.918 603.129 141.918C603.837 141.918 604.449 142.086 604.965 142.422C605.481 142.758 605.883 143.226 606.171 143.826C606.459 144.426 606.603 145.128 606.603 145.932C606.603 146.784 606.417 147.528 606.045 148.164C605.685 148.8 605.175 149.298 604.515 149.658C603.867 150.006 603.093 150.18 602.193 150.18ZM602.193 148.272C602.853 148.272 603.387 148.062 603.795 147.642C604.203 147.21 604.407 146.652 604.407 145.968C604.407 145.26 604.203 144.696 603.795 144.276C603.387 143.844 602.853 143.628 602.193 143.628C601.533 143.628 600.999 143.844 600.591 144.276C600.183 144.696 599.979 145.26 599.979 145.968C599.979 146.652 600.183 147.21 600.591 147.642C600.999 148.062 601.533 148.272 602.193 148.272ZM612.986 150.18C612.134 150.18 611.396 150.018 610.772 149.694C610.148 149.37 609.662 148.914 609.314 148.326C608.978 147.738 608.81 147.048 608.81 146.256V140.604C608.81 139.812 608.978 139.122 609.314 138.534C609.662 137.946 610.148 137.49 610.772 137.166C611.396 136.842 612.134 136.68 612.986 136.68C613.85 136.68 614.588 136.842 615.2 137.166C615.824 137.49 616.304 137.946 616.64 138.534C616.988 139.122 617.162 139.812 617.162 140.604V146.256C617.162 147.048 616.988 147.738 616.64 148.326C616.304 148.914 615.824 149.37 615.2 149.694C614.576 150.018 613.838 150.18 612.986 150.18ZM612.986 148.236C613.61 148.236 614.108 148.056 614.48 147.696C614.852 147.336 615.038 146.856 615.038 146.256V140.604C615.038 140.004 614.852 139.524 614.48 139.164C614.108 138.804 613.61 138.624 612.986 138.624C612.362 138.624 611.864 138.804 611.492 139.164C611.12 139.524 610.934 140.004 610.934 140.604V146.256C610.934 146.856 611.12 147.336 611.492 147.696C611.864 148.056 612.362 148.236 612.986 148.236ZM612.986 144.6C612.638 144.6 612.35 144.486 612.122 144.258C611.906 144.03 611.798 143.736 611.798 143.376C611.798 143.016 611.906 142.728 612.122 142.512C612.338 142.296 612.626 142.188 612.986 142.188C613.346 142.188 613.634 142.296 613.85 142.512C614.066 142.728 614.174 143.016 614.174 143.376C614.174 143.736 614.066 144.03 613.85 144.258C613.634 144.486 613.346 144.6 612.986 144.6ZM619.009 150L622.321 136.86H625.219L628.549 150H626.245L625.525 146.814H622.033L621.313 150H619.009ZM622.447 144.978H625.111L624.319 141.45C624.187 140.862 624.073 140.334 623.977 139.866C623.881 139.386 623.815 139.038 623.779 138.822C623.743 139.038 623.677 139.386 623.581 139.866C623.497 140.334 623.383 140.856 623.239 141.432L622.447 144.978ZM629.802 150L633.114 136.86H636.012L639.342 150H637.038L636.318 146.814H632.826L632.106 150H629.802ZM633.24 144.978H635.904L635.112 141.45C634.98 140.862 634.866 140.334 634.77 139.866C634.674 139.386 634.608 139.038 634.572 138.822C634.536 139.038 634.47 139.386 634.374 139.866C634.29 140.334 634.176 140.856 634.032 141.432L633.24 144.978ZM641.405 150V136.86H649.577V138.948H643.619V142.458H649.109V144.546H643.655V150H641.405ZM652.144 150V136.86H656.176C657.448 136.86 658.456 137.166 659.2 137.778C659.944 138.378 660.316 139.2 660.316 140.244C660.316 140.832 660.184 141.342 659.92 141.774C659.656 142.206 659.296 142.542 658.84 142.782C658.396 143.022 657.88 143.142 657.292 143.142V143.07C657.928 143.058 658.492 143.178 658.984 143.43C659.488 143.67 659.884 144.03 660.172 144.51C660.472 144.99 660.622 145.572 660.622 146.256C660.622 147.012 660.448 147.672 660.1 148.236C659.752 148.8 659.26 149.238 658.624 149.55C658 149.85 657.25 150 656.374 150H652.144ZM654.34 148.128H656.23C656.89 148.128 657.406 147.954 657.778 147.606C658.162 147.246 658.354 146.76 658.354 146.148C658.354 145.536 658.162 145.044 657.778 144.672C657.406 144.288 656.89 144.096 656.23 144.096H654.34V148.128ZM654.34 142.278H656.14C656.74 142.278 657.208 142.122 657.544 141.81C657.892 141.486 658.066 141.048 658.066 140.496C658.066 139.944 657.892 139.512 657.544 139.2C657.208 138.888 656.74 138.732 656.14 138.732H654.34V142.278Z" fill="#1F242A"/>
<rect x="672" y="96" width="96" height="96" fill="#E397BB"/>
<path d="M683.35 150L683.944 146.724H682.468V145.176H684.214L684.826 141.684H683.044V140.136H685.096L685.672 136.86H687.31L686.716 140.136H689.236L689.812 136.86H691.45L690.856 140.136H692.332V141.684H690.586L689.974 145.176H691.756V146.724H689.704L689.128 150H687.49L688.084 146.724H685.564L684.988 150H683.35ZM685.834 145.176H688.354L688.966 141.684H686.446L685.834 145.176ZM694.377 150V136.86H702.261V138.822H696.591V142.242H701.631V144.186H696.591V148.038H702.261V150H694.377ZM708.86 150.18C708.008 150.18 707.264 150.024 706.628 149.712C706.004 149.4 705.518 148.962 705.17 148.398C704.822 147.834 704.648 147.168 704.648 146.4H706.916C706.916 146.988 707.084 147.45 707.42 147.786C707.768 148.11 708.254 148.272 708.878 148.272C709.502 148.272 709.982 148.104 710.318 147.768C710.654 147.432 710.822 146.976 710.822 146.4V145.374C710.822 144.786 710.654 144.33 710.318 144.006C709.982 143.67 709.502 143.502 708.878 143.502H707.402V141.468L710.3 138.786H705.242V136.86H712.586V138.894L708.878 142.296V141.576C710.174 141.576 711.2 141.918 711.956 142.602C712.712 143.286 713.09 144.21 713.09 145.374V146.4C713.09 147.168 712.916 147.834 712.568 148.398C712.22 148.962 711.728 149.4 711.092 149.712C710.456 150.024 709.712 150.18 708.86 150.18ZM717.403 150L721.291 143.88L721.183 143.808C720.943 144.18 720.619 144.462 720.211 144.654C719.803 144.846 719.347 144.942 718.843 144.942C718.147 144.942 717.535 144.774 717.007 144.438C716.491 144.102 716.089 143.634 715.801 143.034C715.513 142.434 715.369 141.732 715.369 140.928C715.369 140.064 715.549 139.32 715.909 138.696C716.281 138.06 716.797 137.568 717.457 137.22C718.117 136.86 718.885 136.68 719.761 136.68C720.661 136.68 721.441 136.866 722.101 137.238C722.761 137.598 723.271 138.108 723.631 138.768C724.003 139.428 724.189 140.202 724.189 141.09C724.189 141.702 724.087 142.356 723.883 143.052C723.679 143.736 723.385 144.378 723.001 144.978L719.905 150H717.403ZM719.779 143.232C720.439 143.232 720.973 143.022 721.381 142.602C721.789 142.17 721.993 141.6 721.993 140.892C721.993 140.208 721.789 139.656 721.381 139.236C720.973 138.804 720.439 138.588 719.779 138.588C719.119 138.588 718.585 138.804 718.177 139.236C717.769 139.656 717.565 140.208 717.565 140.892C717.565 141.6 717.769 142.17 718.177 142.602C718.585 143.022 719.119 143.232 719.779 143.232ZM727.962 150L732.714 138.948H728.502V140.856H726.252V136.86H734.964V138.984L730.374 150H727.962ZM737.351 150V136.86H741.383C742.655 136.86 743.663 137.166 744.407 137.778C745.151 138.378 745.523 139.2 745.523 140.244C745.523 140.832 745.391 141.342 745.127 141.774C744.863 142.206 744.503 142.542 744.047 142.782C743.603 143.022 743.087 143.142 742.499 143.142V143.07C743.135 143.058 743.699 143.178 744.191 143.43C744.695 143.67 745.091 144.03 745.379 144.51C745.679 144.99 745.829 145.572 745.829 146.256C745.829 147.012 745.655 147.672 745.307 148.236C744.959 148.8 744.467 149.238 743.831 149.55C743.207 149.85 742.457 150 741.581 150H737.351ZM739.547 148.128H741.437C742.097 148.128 742.613 147.954 742.985 147.606C743.369 147.246 743.561 146.76 743.561 146.148C743.561 145.536 743.369 145.044 742.985 144.672C742.613 144.288 742.097 144.096 741.437 144.096H739.547V148.128ZM739.547 142.278H741.347C741.947 142.278 742.415 142.122 742.751 141.81C743.099 141.486 743.273 141.048 743.273 140.496C743.273 139.944 743.099 139.512 742.751 139.2C742.415 138.888 741.947 138.732 741.347 138.732H739.547V142.278ZM748.144 150V136.86H752.176C753.448 136.86 754.456 137.166 755.2 137.778C755.944 138.378 756.316 139.2 756.316 140.244C756.316 140.832 756.184 141.342 755.92 141.774C755.656 142.206 755.296 142.542 754.84 142.782C754.396 143.022 753.88 143.142 753.292 143.142V143.07C753.928 143.058 754.492 143.178 754.984 143.43C755.488 143.67 755.884 144.03 756.172 144.51C756.472 144.99 756.622 145.572 756.622 146.256C756.622 147.012 756.448 147.672 756.1 148.236C755.752 148.8 755.26 149.238 754.624 149.55C754 149.85 753.25 150 752.374 150H748.144ZM750.34 148.128H752.23C752.89 148.128 753.406 147.954 753.778 147.606C754.162 147.246 754.354 146.76 754.354 146.148C754.354 145.536 754.162 145.044 753.778 144.672C753.406 144.288 752.89 144.096 752.23 144.096H750.34V148.128ZM750.34 142.278H752.14C752.74 142.278 753.208 142.122 753.544 141.81C753.892 141.486 754.066 141.048 754.066 140.496C754.066 139.944 753.892 139.512 753.544 139.2C753.208 138.888 752.74 138.732 752.14 138.732H750.34V142.278Z" fill="#1F242A"/>
<rect x="768" y="96" width="96" height="96" fill="#B196F0"/>
<path d="M779.35 150L779.944 146.724H778.468V145.176H780.214L780.826 141.684H779.044V140.136H781.096L781.672 136.86H783.31L782.716 140.136H785.236L785.812 136.86H787.45L786.856 140.136H788.332V141.684H786.586L785.974 145.176H787.756V146.724H785.704L785.128 150H783.49L784.084 146.724H781.564L780.988 150H779.35ZM781.834 145.176H784.354L784.966 141.684H782.446L781.834 145.176ZM790.179 150V136.86H794.211C795.483 136.86 796.491 137.166 797.235 137.778C797.979 138.378 798.351 139.2 798.351 140.244C798.351 140.832 798.219 141.342 797.955 141.774C797.691 142.206 797.331 142.542 796.875 142.782C796.431 143.022 795.915 143.142 795.327 143.142V143.07C795.963 143.058 796.527 143.178 797.019 143.43C797.523 143.67 797.919 144.03 798.207 144.51C798.507 144.99 798.657 145.572 798.657 146.256C798.657 147.012 798.483 147.672 798.135 148.236C797.787 148.8 797.295 149.238 796.659 149.55C796.035 149.85 795.285 150 794.409 150H790.179ZM792.375 148.128H794.265C794.925 148.128 795.441 147.954 795.813 147.606C796.197 147.246 796.389 146.76 796.389 146.148C796.389 145.536 796.197 145.044 795.813 144.672C795.441 144.288 794.925 144.096 794.265 144.096H792.375V148.128ZM792.375 142.278H794.175C794.775 142.278 795.243 142.122 795.579 141.81C795.927 141.486 796.101 141.048 796.101 140.496C796.101 139.944 795.927 139.512 795.579 139.2C795.243 138.888 794.775 138.732 794.175 138.732H792.375V142.278ZM801.098 150V148.02H804.518V138.858L801.08 141.414V139.038L804.104 136.86H806.768V148.02H809.522V150H801.098ZM813.403 150L817.291 143.88L817.183 143.808C816.943 144.18 816.619 144.462 816.211 144.654C815.803 144.846 815.347 144.942 814.843 144.942C814.147 144.942 813.535 144.774 813.007 144.438C812.491 144.102 812.089 143.634 811.801 143.034C811.513 142.434 811.369 141.732 811.369 140.928C811.369 140.064 811.549 139.32 811.909 138.696C812.281 138.06 812.797 137.568 813.457 137.22C814.117 136.86 814.885 136.68 815.761 136.68C816.661 136.68 817.441 136.866 818.101 137.238C818.761 137.598 819.271 138.108 819.631 138.768C820.003 139.428 820.189 140.202 820.189 141.09C820.189 141.702 820.087 142.356 819.883 143.052C819.679 143.736 819.385 144.378 819.001 144.978L815.905 150H813.403ZM815.779 143.232C816.439 143.232 816.973 143.022 817.381 142.602C817.789 142.17 817.993 141.6 817.993 140.892C817.993 140.208 817.789 139.656 817.381 139.236C816.973 138.804 816.439 138.588 815.779 138.588C815.119 138.588 814.585 138.804 814.177 139.236C813.769 139.656 813.565 140.208 813.565 140.892C813.565 141.6 813.769 142.17 814.177 142.602C814.585 143.022 815.119 143.232 815.779 143.232ZM826.572 150.18C825.696 150.18 824.922 150 824.25 149.64C823.59 149.268 823.074 148.752 822.702 148.092C822.342 147.42 822.162 146.646 822.162 145.77C822.162 145.146 822.264 144.492 822.468 143.808C822.684 143.124 822.978 142.482 823.35 141.882L826.446 136.86H828.948L825.06 142.98L825.168 143.052C825.408 142.68 825.732 142.398 826.14 142.206C826.548 142.014 827.004 141.918 827.508 141.918C828.216 141.918 828.828 142.086 829.344 142.422C829.86 142.758 830.262 143.226 830.55 143.826C830.838 144.426 830.982 145.128 830.982 145.932C830.982 146.784 830.796 147.528 830.424 148.164C830.064 148.8 829.554 149.298 828.894 149.658C828.246 150.006 827.472 150.18 826.572 150.18ZM826.572 148.272C827.232 148.272 827.766 148.062 828.174 147.642C828.582 147.21 828.786 146.652 828.786 145.968C828.786 145.26 828.582 144.696 828.174 144.276C827.766 143.844 827.232 143.628 826.572 143.628C825.912 143.628 825.378 143.844 824.97 144.276C824.562 144.696 824.358 145.26 824.358 145.968C824.358 146.652 824.562 147.21 824.97 147.642C825.378 148.062 825.912 148.272 826.572 148.272ZM833.405 150V136.86H841.577V138.948H835.619V142.458H841.109V144.546H835.655V150H833.405ZM848.158 150.18C847.306 150.18 846.568 150.018 845.944 149.694C845.32 149.37 844.834 148.914 844.486 148.326C844.15 147.738 843.982 147.048 843.982 146.256V140.604C843.982 139.812 844.15 139.122 844.486 138.534C844.834 137.946 845.32 137.49 845.944 137.166C846.568 136.842 847.306 136.68 848.158 136.68C849.022 136.68 849.76 136.842 850.372 137.166C850.996 137.49 851.476 137.946 851.812 138.534C852.16 139.122 852.334 139.812 852.334 140.604V146.256C852.334 147.048 852.16 147.738 851.812 148.326C851.476 148.914 850.996 149.37 850.372 149.694C849.748 150.018 849.01 150.18 848.158 150.18ZM848.158 148.236C848.782 148.236 849.28 148.056 849.652 147.696C850.024 147.336 850.21 146.856 850.21 146.256V140.604C850.21 140.004 850.024 139.524 849.652 139.164C849.28 138.804 848.782 138.624 848.158 138.624C847.534 138.624 847.036 138.804 846.664 139.164C846.292 139.524 846.106 140.004 846.106 140.604V146.256C846.106 146.856 846.292 147.336 846.664 147.696C847.036 148.056 847.534 148.236 848.158 148.236ZM848.158 144.6C847.81 144.6 847.522 144.486 847.294 144.258C847.078 144.03 846.97 143.736 846.97 143.376C846.97 143.016 847.078 142.728 847.294 142.512C847.51 142.296 847.798 142.188 848.158 142.188C848.518 142.188 848.806 142.296 849.022 142.512C849.238 142.728 849.346 143.016 849.346 143.376C849.346 143.736 849.238 144.03 849.022 144.258C848.806 144.486 848.518 144.6 848.158 144.6Z" fill="#1F242A"/>
</svg>
